<svg width="24" height="24" viewBox="0 0 24 24" fill="none" xmlns="http://www.w3.org/2000/svg">
<path d="M20.8924 9.88895C20.886 9.85942 20.8777 9.83035 20.8674 9.80195L18.7634 3.32295C18.7067 3.15601 18.5989 3.01113 18.4554 2.90883C18.3118 2.80653 18.1397 2.75199 17.9634 2.75295C17.7877 2.75189 17.6162 2.80715 17.4742 2.91063C17.3323 3.01411 17.2272 3.16037 17.1744 3.32795L15.1684 9.50295H8.83436L6.82636 3.32695C6.77358 3.15995 6.6689 3.01413 6.52754 2.91072C6.38618 2.8073 6.21551 2.75169 6.04036 2.75195H6.03436C5.85819 2.75194 5.68652 2.80751 5.54377 2.91075C5.40103 3.01399 5.2945 3.15964 5.23936 3.32695L3.13336 9.81495C3.13336 9.81995 3.12836 9.82495 3.12636 9.83095L2.05936 13.112C1.98055 13.3526 1.98021 13.612 2.05839 13.8529C2.13657 14.0937 2.28924 14.3035 2.49436 14.452L11.7214 21.158C11.8884 21.279 12.1144 21.278 12.2794 21.155L21.5084 14.452C21.7129 14.303 21.8651 14.0932 21.9432 13.8525C22.0213 13.6118 22.0214 13.3526 21.9434 13.112L20.8924 9.88895ZM17.9704 3.93595L19.7794 9.50195H16.1604L17.9704 3.93595ZM6.03036 3.93595L7.84236 9.50195H4.22836L6.03036 3.93595ZM3.04836 13.688C3.00471 13.6566 2.97217 13.6122 2.95545 13.5612C2.93873 13.5101 2.9387 13.455 2.95536 13.404L3.74836 10.967L9.56536 18.423L3.04836 13.688ZM4.54736 10.449H8.14836L10.7214 18.365L4.54736 10.449ZM11.9994 19.243L9.14336 10.445H14.8614L13.0694 15.96L11.9994 19.243ZM13.2814 18.366L15.7484 10.778L15.8544 10.449H19.4584L13.8724 17.605L13.2814 18.366ZM20.9524 13.688L14.4334 18.421L14.4554 18.392L20.2494 10.967L21.0414 13.403C21.0592 13.4537 21.0601 13.5089 21.0441 13.5602C21.028 13.6115 20.9959 13.6563 20.9524 13.688Z" fill="white"/>
</svg>
