<svg width="20" height="20" viewBox="0 0 20 20" fill="none" xmlns="http://www.w3.org/2000/svg">
<path d="M5.35032 8.225L10.0003 17.3167L14.6503 8.225H5.35032ZM4.91699 3.34167L1.66699 7.7H4.68366L4.91699 3.34167ZM10.0003 2.85L5.52533 7.7H14.4753L10.0003 2.85ZM1.70033 8.225L9.27532 17.0417L4.76699 8.225H1.70033ZM9.60866 2.5H9.48366L5.45032 2.925C5.45426 2.93861 5.45426 2.95306 5.45032 2.96667L5.22532 7.25833L9.60866 2.5ZM10.7253 17.0417L18.3003 8.225H15.2337L10.7253 17.0417ZM14.542 2.98333C14.5381 2.96972 14.5381 2.95528 14.542 2.94167L11.2087 2.59167L10.3753 2.5L14.7587 7.25833L14.542 2.98333ZM15.0837 3.34167L15.317 7.7H18.3337L16.4837 5.21667L15.0837 3.34167Z" fill="white"/>
</svg>
