<svg width="20" height="20" viewBox="0 0 20 20" fill="none" xmlns="http://www.w3.org/2000/svg">
<path d="M16.667 10.8327H3.33366C2.89163 10.8327 2.46771 11.0083 2.15515 11.3208C1.84259 11.6334 1.66699 12.0573 1.66699 12.4994V15.8327C1.66699 16.2747 1.84259 16.6986 2.15515 17.0112C2.46771 17.3238 2.89163 17.4994 3.33366 17.4994H16.667C17.109 17.4994 17.5329 17.3238 17.8455 17.0112C18.1581 16.6986 18.3337 16.2747 18.3337 15.8327V12.4994C18.3337 12.0573 18.1581 11.6334 17.8455 11.3208C17.5329 11.0083 17.109 10.8327 16.667 10.8327ZM13.3337 14.9994H11.667V13.3327H13.3337V14.9994ZM16.667 14.9994H15.0003V13.3327H16.667V14.9994ZM17.3128 9.16602H17.5003L16.1237 2.97102C16.0414 2.60091 15.8354 2.26992 15.5396 2.03266C15.2439 1.79541 14.8761 1.66608 14.497 1.66602H5.50366C5.12452 1.66608 4.75673 1.79541 4.461 2.03266C4.16527 2.26992 3.95926 2.60091 3.87699 2.97102L2.50033 9.16602H17.3128Z" fill="white"/>
</svg>
