<svg width="20" height="20" viewBox="0 0 20 20" fill="none" xmlns="http://www.w3.org/2000/svg">
<path d="M18.2833 7.17539L10.7833 3.42539C10.55 3.30872 10.275 3.30872 10.0417 3.42539L5.04167 5.92539L2.54167 7.17539L1.70833 7.59206C1.425 7.73372 1.25 8.02539 1.25 8.33372V13.3337H2.91667V8.85039L4.58333 9.68372V12.8754C4.58333 14.5921 7.18333 16.6754 10.4167 16.6754C13.65 16.6754 16.25 14.6004 16.25 12.8754V9.68372L18.2917 8.66706C18.575 8.52539 18.75 8.23372 18.75 7.92539C18.75 7.61706 18.575 7.32539 18.2917 7.18372L18.2833 7.17539ZM5.78333 7.41706L10.4083 5.10039L16.0417 7.91706L10.4083 10.7337L4.775 7.91706L5.78333 7.40872V7.41706ZM14.575 12.8754C14.575 13.5087 12.8167 15.0087 10.4083 15.0087C8 15.0087 6.24167 13.5171 6.24167 12.8754V10.5171L10.0333 12.4171C10.15 12.4754 10.275 12.5087 10.4083 12.5087C10.5417 12.5087 10.6667 12.4754 10.7833 12.4171L14.575 10.5171V12.8754Z" fill="white"/>
</svg>
