<svg width="20" height="20" viewBox="0 0 20 20" fill="none" xmlns="http://www.w3.org/2000/svg">
<path d="M8.9375 12.5417C9.25694 12.8472 9.65278 12.9896 10.125 12.9688C10.5972 12.9479 10.9444 12.7708 11.1667 12.4375L15.5 6L9.05917 10.3388C8.71417 10.5713 8.52778 10.9201 8.5 11.3854C8.47222 11.8507 8.61806 12.2361 8.9375 12.5417ZM10.0208 4C10.8542 4 11.6042 4.10764 12.2708 4.32292C12.9375 4.53819 13.5417 4.80556 14.0833 5.125L12.6458 6.0625C12.2569 5.88194 11.8507 5.74306 11.4271 5.64583C11.0035 5.54861 10.5347 5.5 10.0208 5.5C8.21403 5.5 6.67549 6.14931 5.40521 7.44792C4.13507 8.74653 3.5 10.2639 3.5 12C3.5 12.5278 3.53819 12.9618 3.61458 13.3021C3.69097 13.6424 3.8125 14.0417 3.97917 14.5H16C16.1806 14.0417 16.309 13.6215 16.3854 13.2396C16.4618 12.8576 16.5 12.4444 16.5 12C16.5 11.4167 16.4201 10.8333 16.2604 10.25C16.1007 9.66667 15.8681 9.13194 15.5625 8.64583L16.4583 7.29167C16.9444 7.95833 17.3229 8.69444 17.5938 9.5C17.8646 10.3056 18 11.125 18 11.9583C18 12.6667 17.941 13.2847 17.8229 13.8125C17.7049 14.3403 17.5139 14.8264 17.25 15.2708C17.1111 15.5069 16.934 15.6875 16.7188 15.8125C16.5035 15.9375 16.2639 16 16 16H4C3.73611 16 3.49653 15.9375 3.28125 15.8125C3.06597 15.6875 2.88889 15.5069 2.75 15.2708C2.48611 14.8264 2.29514 14.3403 2.17708 13.8125C2.05903 13.2847 2 12.6667 2 11.9583C2 10.8511 2.21181 9.81389 2.63542 8.84667C3.05903 7.87944 3.63194 7.03819 4.35417 6.32292C5.07639 5.60764 5.92667 5.04167 6.905 4.625C7.88333 4.20833 8.92194 4 10.0208 4Z" fill="white"/>
</svg>
