<svg width="20" height="20" viewBox="0 0 20 20" fill="none" xmlns="http://www.w3.org/2000/svg">
<path d="M1.80449 16.2931C1.95949 16.5265 2.22033 16.6673 2.50033 16.6673H15.0003C15.3337 16.6673 15.6353 16.469 15.7662 16.1623L18.2662 10.329C18.3209 10.2023 18.3433 10.0639 18.3313 9.92637C18.3192 9.78885 18.2731 9.65648 18.1971 9.54122C18.1211 9.42596 18.0177 9.33143 17.896 9.26616C17.7744 9.20088 17.6384 9.16691 17.5003 9.16732H16.667V6.66732C16.667 5.74815 15.9195 5.00065 15.0003 5.00065H9.45449L7.32449 3.33398H3.33366C2.41449 3.33398 1.66699 4.08148 1.66699 5.00065V15.834H1.67283C1.67097 15.9966 1.71674 16.1562 1.80449 16.2931ZM15.0003 6.66732V9.16732H5.00033C4.66699 9.16732 4.36533 9.36565 4.23449 9.67232L3.33366 11.7748V6.66732H15.0003Z" fill="white"/>
</svg>
