<svg width="20" height="20" viewBox="0 0 20 20" fill="none" xmlns="http://www.w3.org/2000/svg">
<path d="M16.667 4.99935H14.167V3.33268C14.167 2.41602 13.417 1.66602 12.5003 1.66602H7.50032C6.58366 1.66602 5.83366 2.41602 5.83366 3.33268V4.99935H3.33366C2.41699 4.99935 1.66699 5.74935 1.66699 6.66601V16.666C1.66699 17.5827 2.41699 18.3327 3.33366 18.3327H16.667C17.5837 18.3327 18.3337 17.5827 18.3337 16.666V6.66601C18.3337 5.74935 17.5837 4.99935 16.667 4.99935ZM7.50032 3.33268H12.5003V4.99935H7.50032V3.33268ZM6.66699 6.66601H16.667V9.22435L15.9753 9.54935C14.1072 10.4323 12.0666 10.8902 10.0003 10.8902C7.93406 10.8902 5.89347 10.4323 4.02533 9.54935L3.33366 9.22435V6.66601H6.66699ZM3.33366 16.666V11.066C5.45032 12.0577 7.72532 12.5577 10.0003 12.5577C12.2753 12.5577 14.5503 12.0577 16.667 11.066V16.666H3.33366Z" fill="white"/>
</svg>
