<svg width="20" height="20" viewBox="0 0 20 20" fill="none" xmlns="http://www.w3.org/2000/svg">
<path d="M9.99975 1.66602C6.32475 1.66602 3.33309 4.65768 3.33309 8.33268C3.30809 13.6993 9.26642 17.9993 9.51642 18.1827C9.65809 18.2827 9.83309 18.341 9.99975 18.341C10.1664 18.341 10.3414 18.291 10.4831 18.1827C10.7331 17.9993 16.6914 13.7077 16.6664 8.33268C16.6664 4.65768 13.6748 1.66602 9.99975 1.66602ZM9.99975 11.666C8.15809 11.666 6.66642 10.1743 6.66642 8.33268C6.66642 6.49102 8.15809 4.99935 9.99975 4.99935C11.8414 4.99935 13.3331 6.49102 13.3331 8.33268C13.3331 10.1743 11.8414 11.666 9.99975 11.666Z" fill="white"/>
</svg>
