<svg width="20" height="20" viewBox="0 0 20 20" fill="none" xmlns="http://www.w3.org/2000/svg">
<path d="M15.7438 18.7292C15.6325 18.7292 15.528 18.7118 15.4306 18.6771C15.3331 18.6424 15.2426 18.5833 15.1591 18.5L10.8984 14.25C10.8149 14.1667 10.7557 14.0764 10.7209 13.9792C10.6861 13.8819 10.6687 13.7778 10.6687 13.6667C10.6687 13.5556 10.6861 13.4514 10.7209 13.3542C10.7557 13.2569 10.8149 13.1667 10.8984 13.0833L12.6737 11.3125C12.7572 11.2292 12.8477 11.1701 12.9452 11.1354C13.0427 11.1007 13.1471 11.0833 13.2585 11.0833C13.3699 11.0833 13.4743 11.1007 13.5718 11.1354C13.6692 11.1701 13.7597 11.2292 13.8433 11.3125L18.1039 15.5625C18.1875 15.6458 18.2466 15.7361 18.2814 15.8333C18.3163 15.9306 18.3337 16.0347 18.3337 16.1458C18.3337 16.2569 18.3163 16.3611 18.2814 16.4583C18.2466 16.5556 18.1875 16.6458 18.1039 16.7292L16.3286 18.5C16.2451 18.5833 16.1546 18.6424 16.0571 18.6771C15.9597 18.7118 15.8552 18.7292 15.7438 18.7292ZM15.7438 16.75L16.3495 16.1458L13.2794 13.0833L12.6737 13.6875L15.7438 16.75ZM4.27769 18.75C4.1663 18.75 4.05839 18.7292 3.95396 18.6875C3.84953 18.6458 3.75555 18.5833 3.672 18.5L1.91762 16.75C1.83408 16.6667 1.77142 16.5729 1.72965 16.4688C1.68788 16.3646 1.66699 16.2569 1.66699 16.1458C1.66699 16.0347 1.68788 15.9306 1.72965 15.8333C1.77142 15.7361 1.83408 15.6458 1.91762 15.5625L6.34535 11.1458H8.12063L8.83073 10.4375L5.38462 7H4.19414L1.66699 4.47917L4.02706 2.125L6.55421 4.64583V5.83333L10.0003 9.27083L12.423 6.85417L11.525 5.95833L12.6946 4.79167H10.3345L9.7497 4.20833L12.7154 1.25L13.3002 1.83333V4.1875L14.4698 3.02083L17.4356 5.97917C17.6723 6.21528 17.8533 6.48264 17.9786 6.78125C18.1039 7.07986 18.1666 7.39583 18.1666 7.72917C18.1666 8.0625 18.1039 8.38194 17.9786 8.6875C17.8533 8.99306 17.6723 9.26389 17.4356 9.5L15.6603 7.72917L14.4907 8.89583L13.6135 8.02083L9.29022 12.3333V14.0833L4.86248 18.5C4.77894 18.5833 4.68843 18.6458 4.59097 18.6875C4.4935 18.7292 4.38908 18.75 4.27769 18.75ZM4.27769 16.75L7.82823 13.2083V12.6042H7.22255L3.672 16.1458L4.27769 16.75ZM4.27769 16.75L3.672 16.1458L3.98529 16.4375L4.27769 16.75Z" fill="white"/>
</svg>
