<svg width="20" height="20" viewBox="0 0 20 20" fill="none" xmlns="http://www.w3.org/2000/svg">
<path fill-rule="evenodd" clip-rule="evenodd" d="M16.6378 7.10018C16.657 6.95518 16.667 6.81018 16.667 6.66601C16.667 4.68352 14.8812 3.09268 12.8995 3.36185C12.322 2.33435 11.222 1.66602 10.0003 1.66602C8.77866 1.66602 7.67866 2.33435 7.10116 3.36185C5.11532 3.09268 3.33366 4.68352 3.33366 6.66601C3.33366 6.81018 3.34366 6.95518 3.36283 7.10018C2.33533 7.67851 1.66699 8.77851 1.66699 9.99935C1.66699 11.2202 2.33533 12.3202 3.36283 12.8985C3.3436 13.0424 3.33386 13.1875 3.33366 13.3327C3.33366 15.3152 5.11532 16.9018 7.10116 16.6368C7.67866 17.6643 8.77866 18.3327 10.0003 18.3327C11.222 18.3327 12.322 17.6643 12.8995 16.6368C14.8812 16.9018 16.667 15.3152 16.667 13.3327C16.667 13.1885 16.657 13.0435 16.6378 12.8985C17.6653 12.3202 18.3337 11.2202 18.3337 9.99935C18.3337 8.77851 17.6653 7.67851 16.6378 7.10018ZM8.80023 6.19087C8.56581 5.9563 8.24781 5.82445 7.91618 5.82434C7.58455 5.82423 7.26645 5.95586 7.03188 6.19028C6.7973 6.42471 6.66545 6.74271 6.66534 7.07434C6.66523 7.40597 6.79687 7.72406 7.03129 7.95864C7.26571 8.19322 7.58371 8.32506 7.91534 8.32517C8.24698 8.32528 8.56507 8.19365 8.79964 7.95923C9.03422 7.72481 9.16607 7.40681 9.16618 7.07517C9.16629 6.74354 9.03465 6.42545 8.80023 6.19087ZM11.8328 6.15851L6.83284 12.8252L8.16618 13.8243L13.1662 7.15767L11.8328 6.15851ZM11.6044 14.0623C11.756 14.1252 11.9186 14.1576 12.0828 14.1577C12.4145 14.1578 12.7326 14.0261 12.9671 13.7917C13.2017 13.5573 13.3336 13.2393 13.3337 12.9077C13.3338 12.576 13.2022 12.2579 12.9677 12.0234C12.7333 11.7888 12.4153 11.6569 12.0837 11.6568C11.9195 11.6568 11.7569 11.6891 11.6051 11.7519C11.4534 11.8147 11.3155 11.9067 11.1994 12.0228C11.0832 12.1389 10.9911 12.2767 10.9282 12.4284C10.8653 12.58 10.8329 12.7426 10.8328 12.9068C10.8328 13.071 10.8651 13.2337 10.9279 13.3854C10.9907 13.5371 11.0827 13.675 11.1988 13.7911C11.3149 13.9073 11.4527 13.9994 11.6044 14.0623Z" fill="white"/>
</svg>
