<svg width="20" height="20" viewBox="0 0 20 20" fill="none" xmlns="http://www.w3.org/2000/svg">
<path d="M8.25986 7.10918L5.93403 3.23084C5.90543 3.18234 5.86732 3.14012 5.82198 3.10673C5.77664 3.07333 5.72501 3.04946 5.67021 3.03653C5.6154 3.02361 5.55855 3.02191 5.50307 3.03153C5.44758 3.04115 5.39462 3.06189 5.34737 3.09251C4.29397 3.79946 3.41623 4.73797 2.78129 5.83627C2.14635 6.93457 1.77102 8.16354 1.68403 9.42918C1.68146 9.48548 1.69022 9.54172 1.7098 9.59457C1.72937 9.64742 1.75937 9.69579 1.79799 9.73683C1.83662 9.77787 1.8831 9.81073 1.93467 9.83346C1.98624 9.8562 2.04185 9.86834 2.0982 9.86918L6.6157 9.94418C6.62573 9.37074 6.78201 8.80936 7.06974 8.31323C7.35747 7.8171 7.76712 7.40266 8.25986 7.10918ZM15.0174 3.35084C14.9701 3.31661 14.9162 3.2926 14.8591 3.28037C14.802 3.26813 14.743 3.26792 14.6859 3.27976C14.6287 3.2916 14.5746 3.31523 14.5271 3.34913C14.4796 3.38304 14.4397 3.42648 14.4099 3.47668L12.0824 7.35834C12.477 7.66712 12.7975 8.06029 13.0204 8.50902C13.2433 8.95775 13.363 9.45068 13.3707 9.95168L17.8865 9.87668C17.9431 9.87584 17.9989 9.86366 18.0507 9.84084C18.1025 9.81802 18.1491 9.78504 18.1879 9.74384C18.2267 9.70265 18.2568 9.65409 18.2765 9.60104C18.2961 9.54799 18.3049 9.49153 18.3024 9.43501C18.2229 8.24468 17.8885 7.08534 17.3217 6.0356C16.7549 4.98585 15.969 4.07024 15.0174 3.35084ZM11.6282 12.9433C11.1298 13.2272 10.5668 13.3781 9.9932 13.3817C9.41936 13.3782 8.85604 13.2273 8.35737 12.9433L6.1557 16.9058C6.12793 16.9547 6.11034 17.0088 6.10401 17.0647C6.09767 17.1205 6.10271 17.1771 6.11883 17.231C6.13495 17.2849 6.16181 17.3349 6.19779 17.3782C6.23377 17.4214 6.27813 17.4569 6.3282 17.4825C7.46851 18.0433 8.72247 18.3344 9.9932 18.3333C11.2634 18.3344 12.5168 18.0432 13.6565 17.4825C13.7066 17.4569 13.751 17.4214 13.7869 17.3782C13.8229 17.3349 13.8498 17.2849 13.8659 17.231C13.882 17.1771 13.8871 17.1205 13.8807 17.0647C13.8744 17.0088 13.8568 16.9547 13.829 16.9058L11.6282 12.9433Z" fill="white"/>
<path d="M10 12.5C11.3807 12.5 12.5 11.3807 12.5 10C12.5 8.61929 11.3807 7.5 10 7.5C8.61929 7.5 7.5 8.61929 7.5 10C7.5 11.3807 8.61929 12.5 10 12.5Z" fill="white"/>
</svg>
