<svg width="20" height="20" viewBox="0 0 20 20" fill="none" xmlns="http://www.w3.org/2000/svg">
<path d="M10.0004 4.16602C3.63957 4.16602 1.7279 9.68018 1.7104 9.73602L1.62207 9.99935L1.70957 10.2627C1.7279 10.3185 3.63957 15.8327 10.0004 15.8327C16.3612 15.8327 18.2729 10.3185 18.2904 10.2627L18.3787 9.99935L18.2912 9.73602C18.2729 9.68018 16.3612 4.16602 10.0004 4.16602ZM10.0004 13.3327C8.16207 13.3327 6.66707 11.8377 6.66707 9.99935C6.66707 8.16102 8.16207 6.66602 10.0004 6.66602C11.8387 6.66602 13.3337 8.16102 13.3337 9.99935C13.3337 11.8377 11.8387 13.3327 10.0004 13.3327Z" fill="white"/>
<path d="M9.99967 8.33398C9.09634 8.33398 8.33301 9.09732 8.33301 10.0007C8.33301 10.904 9.09634 11.6673 9.99967 11.6673C10.903 11.6673 11.6663 10.904 11.6663 10.0007C11.6663 9.09732 10.903 8.33398 9.99967 8.33398Z" fill="white"/>
</svg>
