<svg width="20" height="20" viewBox="0 0 20 20" fill="none" xmlns="http://www.w3.org/2000/svg">
<path d="M17.4833 9.83465C17.4524 9.6802 17.3782 9.53775 17.2693 9.42397C17.1604 9.31018 17.0213 9.22978 16.8683 9.19215L11.1517 7.76215L13.2658 2.82799C13.3395 2.65676 13.3535 2.46576 13.3056 2.28563C13.2577 2.10549 13.1506 1.94667 13.0017 1.83465C12.853 1.7219 12.6706 1.66254 12.484 1.66617C12.2975 1.6698 12.1175 1.7362 11.9733 1.85465L2.80667 9.35465C2.6871 9.45246 2.59707 9.58158 2.54664 9.7276C2.49621 9.87361 2.48735 10.0308 2.52106 10.1815C2.55478 10.3323 2.62973 10.4707 2.73755 10.5813C2.84538 10.6919 2.98183 10.7704 3.13167 10.808L8.73084 12.2088L5.94334 17.0872C5.87143 17.2139 5.83397 17.3572 5.83469 17.503C5.83541 17.6487 5.87429 17.7916 5.94745 17.9177C6.02062 18.0437 6.12552 18.1483 6.2517 18.2212C6.37789 18.2941 6.52096 18.3326 6.66667 18.333C6.84703 18.3333 7.02257 18.2748 7.16667 18.1663L17.1667 10.6663C17.2927 10.5718 17.3893 10.4435 17.4453 10.2963C17.5014 10.1491 17.5145 9.98903 17.4833 9.83465Z" fill="white"/>
</svg>
