<svg width="20" height="20" viewBox="0 0 20 20" fill="none" xmlns="http://www.w3.org/2000/svg">
<path d="M17.5003 4.16602H2.50033C2.27931 4.16602 2.06735 4.25381 1.91107 4.41009C1.75479 4.56637 1.66699 4.77834 1.66699 4.99935V8.33268H2.41116C3.24116 8.33268 4.01116 8.90018 4.14449 9.71935C4.18511 9.95855 4.17304 10.2037 4.10913 10.4378C4.04522 10.6718 3.931 10.8891 3.77444 11.0745C3.61789 11.2598 3.42278 11.4088 3.20272 11.511C2.98265 11.6131 2.74295 11.666 2.50033 11.666H1.66699V14.9994C1.66699 15.2204 1.75479 15.4323 1.91107 15.5886C2.06735 15.7449 2.27931 15.8327 2.50033 15.8327H17.5003C17.7213 15.8327 17.9333 15.7449 18.0896 15.5886C18.2459 15.4323 18.3337 15.2204 18.3337 14.9994V11.666H17.5003C17.2577 11.666 17.018 11.6131 16.7979 11.511C16.5779 11.4088 16.3828 11.2598 16.2262 11.0745C16.0697 10.8891 15.9554 10.6718 15.8915 10.4378C15.8276 10.2037 15.8155 9.95855 15.8562 9.71935C15.9895 8.90018 16.7595 8.33268 17.5895 8.33268H18.3337V4.99935C18.3337 4.77834 18.2459 4.56637 18.0896 4.41009C17.9333 4.25381 17.7213 4.16602 17.5003 4.16602ZM9.16699 14.166H7.50032V12.4993H9.16699V14.166ZM9.16699 10.8327H7.50032V9.16602H9.16699V10.8327ZM9.16699 7.49935H7.50032V5.83268H9.16699V7.49935Z" fill="white"/>
</svg>
