<svg width="20" height="20" viewBox="0 0 20 20" fill="none" xmlns="http://www.w3.org/2000/svg">
<path d="M13.333 17.5C16.2722 16.2108 18.3322 13.4092 18.3322 10C18.3322 6.59083 16.2722 3.78917 13.333 2.5V4.16667C15.3222 5.32167 16.6655 7.53917 16.6655 10C16.6655 12.4608 15.3222 14.6783 13.333 15.8333V17.5Z" fill="white"/>
<path d="M13.3337 5.8329V14.1662C14.3545 13.2496 15.0003 11.4754 15.0003 9.99957C15.0003 8.52374 14.3545 6.74957 13.3337 5.8329ZM3.33366 14.1662H5.58116L10.3712 17.3596C10.4968 17.443 10.6427 17.4909 10.7933 17.4983C10.944 17.5056 11.0938 17.4721 11.227 17.4012C11.36 17.33 11.4712 17.224 11.5487 17.0946C11.6262 16.9652 11.6671 16.8171 11.667 16.6662V3.3329C11.6669 3.18217 11.626 3.03427 11.5485 2.90497C11.471 2.77568 11.3599 2.66982 11.227 2.59867C11.0941 2.52752 10.9444 2.49375 10.7938 2.50095C10.6433 2.50815 10.4975 2.55606 10.372 2.63957L5.58116 5.8329H3.33366C2.41449 5.8329 1.66699 6.5804 1.66699 7.49957V12.4996C1.66699 13.4187 2.41449 14.1662 3.33366 14.1662Z" fill="white"/>
</svg>
