<svg width="20" height="20" viewBox="0 0 20 20" fill="none" xmlns="http://www.w3.org/2000/svg">
<path d="M16.4417 15.2667C17.6167 13.8333 18.3333 12 18.3333 10C18.3333 6.59168 16.275 3.65835 13.3333 2.36668V4.23335C15.325 5.39168 16.6667 7.53335 16.6667 10C16.6667 11.5417 16.1333 12.95 15.2583 14.075L14.075 12.8917C14.6583 12.075 15.0083 11.0833 15.0083 10C15.0083 8.52501 14.3583 7.20001 13.3417 6.28335V12.1583L11.675 10.4917V3.33335C11.675 3.02501 11.5083 2.74168 11.2333 2.60001C10.9583 2.45835 10.6333 2.47501 10.375 2.64168L6.44166 5.26668L2.25833 1.07501L1.08333 2.25001L4.65833 5.82501L11.6667 12.8333L14.0833 15.25L15.2667 16.4333L17.7417 18.9083L18.9167 17.7333L16.4333 15.25L16.4417 15.2667Z" fill="white"/>
<path d="M1.66667 7.49999V12.5C1.66667 13.4167 2.41667 14.1667 3.33334 14.1667H5.58334L10.375 17.3583C10.5167 17.45 10.675 17.5 10.8333 17.5C10.9667 17.5 11.1 17.4667 11.225 17.4C11.5 17.2583 11.6667 16.975 11.6667 16.6667V15.2L2.51667 6.05832C2.00834 6.34165 1.66667 6.88332 1.66667 7.49999Z" fill="white"/>
</svg>
