<svg width="20" height="20" viewBox="0 0 20 20" fill="none" xmlns="http://www.w3.org/2000/svg">
<path d="M10.0003 1.66602C5.40532 1.66602 1.66699 5.40435 1.66699 9.99935C1.66699 14.5943 5.40532 18.3327 10.0003 18.3327C14.5953 18.3327 18.3337 14.5943 18.3337 9.99935C18.3337 5.40435 14.5953 1.66602 10.0003 1.66602ZM3.33366 9.99935C3.33366 9.25018 3.46366 8.53101 3.69283 7.85851L5.00032 9.16601L6.66699 10.8327V12.4993L8.33366 14.166L9.16699 14.9993V16.6085C5.88449 16.196 3.33366 13.3927 3.33366 9.99935ZM15.2753 14.0602C14.7312 13.6218 13.9062 13.3327 13.3337 13.3327V12.4993C13.3337 12.0573 13.1581 11.6334 12.8455 11.3208C12.5329 11.0083 12.109 10.8327 11.667 10.8327H8.33366V8.33268C8.77569 8.33268 9.19961 8.15709 9.51217 7.84453C9.82473 7.53196 10.0003 7.10804 10.0003 6.66601V5.83268H10.8337C11.2757 5.83268 11.6996 5.65709 12.0122 5.34453C12.3247 5.03197 12.5003 4.60804 12.5003 4.16602V3.82352C14.9403 4.81435 16.667 7.20768 16.667 9.99935C16.6668 11.4699 16.1772 12.8986 15.2753 14.0602Z" fill="white"/>
</svg>
