<svg width="24" height="24" viewBox="0 0 24 24" fill="none" xmlns="http://www.w3.org/2000/svg">
<path d="M7.803 5.73047C8.392 5.73047 8.922 5.78147 9.408 5.88547C9.891 5.98847 10.303 6.15847 10.651 6.39347C10.994 6.62847 11.262 6.94047 11.455 7.33247C11.642 7.71947 11.735 8.20347 11.735 8.77547C11.735 9.39547 11.595 9.91347 11.314 10.3265C11.031 10.7405 10.614 11.0795 10.058 11.3415C10.815 11.5605 11.376 11.9435 11.748 12.4875C12.122 13.0365 12.305 13.6935 12.305 14.4635C12.305 15.0885 12.186 15.6255 11.947 16.0765C11.7167 16.5208 11.3826 16.9029 10.973 17.1905C10.5488 17.4859 10.0749 17.7027 9.574 17.8305C9.04881 17.9683 8.50798 18.0376 7.965 18.0365H2V5.73047H7.803ZM7.452 10.7025C7.932 10.7025 8.33 10.5885 8.644 10.3575C8.956 10.1295 9.107 9.75347 9.107 9.23847C9.107 8.95247 9.056 8.71647 8.956 8.53147C8.85857 8.35349 8.71438 8.2055 8.539 8.10347C8.35543 7.9946 8.15283 7.92163 7.942 7.88847C7.71219 7.84561 7.47876 7.82518 7.245 7.82747H4.71V10.7025H7.452ZM7.603 15.9415C7.87 15.9415 8.124 15.9185 8.363 15.8645C8.604 15.8125 8.818 15.7285 9 15.6035C9.182 15.4835 9.332 15.3205 9.44 15.1125C9.549 14.9065 9.602 14.6375 9.602 14.3145C9.602 13.6805 9.423 13.2295 9.069 12.9565C8.714 12.6865 8.238 12.5525 7.655 12.5525H4.71V15.9425L7.603 15.9415ZM16.168 15.9005C16.535 16.2585 17.064 16.4385 17.752 16.4385C18.245 16.4385 18.671 16.3135 19.03 16.0655C19.384 15.8165 19.6 15.5505 19.683 15.2755H21.838C21.492 16.3475 20.967 17.1135 20.249 17.5745C19.54 18.0375 18.677 18.2675 17.669 18.2675C16.967 18.2675 16.335 18.1545 15.769 17.9305C15.2257 17.7189 14.7348 17.3921 14.33 16.9725C13.9319 16.5431 13.6241 16.0381 13.425 15.4875C13.2061 14.8786 13.0977 14.2355 13.105 13.5885C13.105 12.9225 13.216 12.2995 13.434 11.7245C13.6409 11.1687 13.9587 10.6607 14.368 10.2315C14.773 9.81147 15.253 9.48047 15.812 9.23747C16.3998 8.99024 17.0324 8.86701 17.67 8.87547C18.424 8.87547 19.083 9.02147 19.649 9.31547C20.1979 9.59611 20.6738 10.0008 21.039 10.4975C21.402 10.9905 21.661 11.5555 21.822 12.1885C21.983 12.8205 22.039 13.4805 21.993 14.1715H15.562C15.563 14.8755 15.8 15.5425 16.168 15.9005ZM18.98 11.2195C18.689 10.8975 18.197 10.7235 17.595 10.7235C17.204 10.7235 16.881 10.7885 16.621 10.9225C16.3833 11.0425 16.1724 11.2096 16.001 11.4135C15.8505 11.5986 15.7389 11.8122 15.673 12.0415C15.6153 12.2327 15.5781 12.4294 15.562 12.6285H19.544C19.486 12.0045 19.272 11.5435 18.98 11.2195ZM15.062 6.55647H20.051V7.77147H15.062V6.55647Z" fill="white"/>
</svg>
