<svg width="24" height="24" viewBox="0 0 24 24" fill="none" xmlns="http://www.w3.org/2000/svg">
<path d="M19.5544 9.48726C19.6754 10.0503 19.6604 10.7333 19.5144 11.5383C18.9324 14.5163 17.0374 16.0043 13.8314 16.0043H13.3894C13.226 16.0033 13.068 16.0624 12.9454 16.1703C12.8183 16.2803 12.7337 16.4314 12.7064 16.5973L12.6654 16.7863L12.1124 20.2653L12.0914 20.4163C12.0628 20.5833 11.9752 20.7345 11.8444 20.8423C11.721 20.9509 11.5617 21.01 11.3974 21.0083H8.87437C8.81122 21.0116 8.74819 20.9997 8.69059 20.9736C8.63299 20.9475 8.58251 20.9079 8.54337 20.8583C8.50362 20.8075 8.47505 20.749 8.45954 20.6864C8.44402 20.6238 8.44192 20.5587 8.45337 20.4953C8.51437 20.1223 8.60137 19.5573 8.72037 18.8063C8.83737 18.0563 8.92637 17.4923 8.98737 17.1173C9.04837 16.7423 9.13737 16.1793 9.25937 15.4323C9.38037 14.6843 9.47137 14.1223 9.53037 13.7473C9.56337 13.4993 9.70937 13.3763 9.96337 13.3763H11.2794C12.1724 13.3893 12.9614 13.3193 13.6544 13.1653C14.8264 12.9033 15.7884 12.4213 16.5404 11.7163C17.2254 11.0793 17.7434 10.2543 18.1004 9.24327C18.2624 8.77327 18.3774 8.32626 18.4524 7.90526C18.4584 7.86426 18.4664 7.83926 18.4774 7.83126C18.4854 7.82026 18.4994 7.81726 18.5124 7.82026C18.5341 7.82995 18.5548 7.84167 18.5744 7.85526C19.0984 8.25326 19.4284 8.79626 19.5544 9.48726ZM17.8264 6.65126C17.8264 7.36826 17.6724 8.15926 17.3614 9.02526C16.8244 10.5873 15.8144 11.6433 14.3244 12.1933C13.5664 12.4623 12.7224 12.6013 11.7894 12.6183C11.7894 12.6243 11.4884 12.6253 10.8854 12.6253L9.98237 12.6183C9.31037 12.6183 8.91537 12.9383 8.79537 13.5823C8.78237 13.6353 8.49737 15.4123 7.94037 18.9113C7.93237 18.9773 7.89237 19.0133 7.81937 19.0133H4.85437C4.78449 19.0147 4.71516 19.0007 4.65136 18.9722C4.58755 18.9436 4.53086 18.9013 4.48537 18.8483C4.43816 18.7961 4.40332 18.7339 4.38341 18.6664C4.3635 18.5989 4.35904 18.5277 4.37037 18.4583L6.70237 3.66326C6.73224 3.47394 6.83042 3.30212 6.97837 3.18026C7.12262 3.05611 7.30706 2.98859 7.49737 2.99026H13.5114C13.7394 2.99026 14.0664 3.03426 14.4904 3.12126C14.9184 3.20526 15.2914 3.31526 15.6134 3.44226C16.3314 3.71626 16.8794 4.13026 17.2584 4.67926C17.6374 5.23126 17.8264 5.88626 17.8264 6.65126Z" fill="white"/>
</svg>
