<svg width="24" height="24" viewBox="0 0 24 24" fill="none" xmlns="http://www.w3.org/2000/svg">
<path d="M2.97121 12.1883C2.93021 12.1883 2.89321 12.2263 2.88821 12.2703L2.69421 14.0673L2.88821 15.8233C2.89321 15.8723 2.93021 15.9053 2.97121 15.9053C3.01221 15.9053 3.04621 15.8723 3.05521 15.8233L3.26621 14.0673L3.04121 12.2703C3.04121 12.2243 3.00421 12.1883 2.96721 12.1883M2.21721 12.8793C2.16621 12.8793 2.14121 12.9093 2.12921 12.9583L1.99121 14.0673L2.12921 15.1593C2.12921 15.2053 2.16621 15.2373 2.20421 15.2373C2.24321 15.2373 2.27721 15.1993 2.29121 15.1503L2.46721 14.0503L2.29121 12.9383C2.29121 12.8873 2.25421 12.8623 2.21621 12.8623M3.74221 11.8373C3.69021 11.8373 3.64221 11.8763 3.64221 11.9243L3.46621 14.0633L3.65421 16.1143C3.65421 16.1633 3.69121 16.2143 3.75321 16.2143C3.80521 16.2143 3.84221 16.1633 3.85521 16.1143L4.06621 14.0503L3.85521 11.9243C3.84221 11.8753 3.80321 11.8243 3.75321 11.8243M4.54321 11.7493C4.48021 11.7493 4.42921 11.8003 4.41721 11.8623L4.25621 14.0633L4.43321 16.1863C4.44521 16.2493 4.49421 16.3003 4.55521 16.3003C4.61921 16.3003 4.66821 16.2493 4.68021 16.1763L4.88121 14.0633L4.68021 11.8763C4.68048 11.8616 4.6778 11.847 4.67233 11.8334C4.66686 11.8197 4.65871 11.8073 4.64836 11.7969C4.63801 11.7864 4.62568 11.7782 4.61208 11.7726C4.59849 11.767 4.58391 11.7642 4.56921 11.7643L4.54321 11.7493ZM5.50521 12.0503C5.50483 12.0333 5.50106 12.0166 5.49414 12.0011C5.48722 11.9856 5.47728 11.9716 5.4649 11.96C5.45253 11.9483 5.43795 11.9393 5.42204 11.9333C5.40613 11.9274 5.38919 11.9247 5.37221 11.9253C5.33766 11.9245 5.30412 11.937 5.27859 11.9603C5.25306 11.9836 5.23752 12.0158 5.23521 12.0503L5.05321 14.0763L5.22221 16.2143C5.22208 16.2316 5.2254 16.2488 5.232 16.2648C5.2386 16.2809 5.24834 16.2954 5.26063 16.3076C5.27293 16.3198 5.28754 16.3294 5.30361 16.3359C5.31968 16.3424 5.33689 16.3456 5.35421 16.3453C5.41621 16.3453 5.47721 16.2903 5.47721 16.2133L5.66621 14.0743L5.47721 12.0383L5.50521 12.0503ZM6.17921 10.6243C6.1401 10.6258 6.10303 10.6422 6.07554 10.67C6.04805 10.6979 6.0322 10.7352 6.03121 10.7743L5.85521 14.0743L6.01121 16.2133C6.01121 16.2903 6.07721 16.3503 6.16121 16.3503C6.23921 16.3503 6.30621 16.2763 6.31121 16.2003L6.48521 14.0633L6.31221 10.7503C6.30521 10.6623 6.23821 10.5983 6.16221 10.5983M6.96221 9.83632C6.91888 9.83812 6.8777 9.85567 6.8464 9.88569C6.8151 9.9157 6.79583 9.95611 6.79221 9.99932L6.64221 14.0623L6.78021 16.1873C6.78021 16.2873 6.85521 16.3613 6.94321 16.3613C7.02921 16.3613 7.10421 16.2873 7.11721 16.1873L7.27921 14.0623L7.11821 10.0103C7.10521 9.91032 7.03021 9.83532 6.94321 9.83532M7.76921 9.46332C7.66721 9.46332 7.59321 9.53632 7.58121 9.63632L7.44221 14.0363L7.58121 16.1383C7.59321 16.2383 7.66721 16.3263 7.76921 16.3263C7.8185 16.3248 7.86533 16.3045 7.90011 16.2695C7.93488 16.2346 7.95496 16.1876 7.95621 16.1383L8.11921 14.0363L7.95521 9.63632C7.95521 9.53632 7.86821 9.44832 7.76721 9.44832M8.80521 9.48632C8.80562 9.46008 8.80075 9.43402 8.79089 9.40969C8.78103 9.38536 8.76639 9.36327 8.74783 9.34471C8.72927 9.32615 8.70717 9.3115 8.68284 9.30164C8.65851 9.29179 8.63246 9.28692 8.60621 9.28732C8.55356 9.28833 8.50332 9.30955 8.46589 9.3466C8.42847 9.38365 8.40674 9.43368 8.40521 9.48632L8.28021 14.0243L8.40421 16.1133C8.41921 16.2243 8.50521 16.3123 8.61821 16.3123C8.73121 16.3123 8.81921 16.2243 8.81921 16.1133L8.95521 14.0243L8.81921 9.47432L8.80521 9.48632ZM9.43021 9.37532C9.31721 9.37532 9.21721 9.47532 9.21721 9.58632L9.09221 14.0253L9.21721 16.0883C9.21721 16.2133 9.31721 16.3013 9.43021 16.3013C9.48812 16.2995 9.543 16.275 9.58303 16.2331C9.62306 16.1912 9.64503 16.1353 9.64421 16.0773L9.76921 14.0133L9.62921 9.58532C9.62921 9.46332 9.52921 9.36032 9.40421 9.36032M10.2422 9.49932C10.2111 9.49919 10.1802 9.50523 10.1514 9.51709C10.1225 9.52896 10.0964 9.54641 10.0743 9.56844C10.0523 9.59048 10.0348 9.61665 10.023 9.64547C10.0111 9.67428 10.0051 9.70516 10.0052 9.73632L9.91921 14.0263L10.0322 16.0893C10.0322 16.2133 10.1322 16.3203 10.2682 16.3203C10.3932 16.3203 10.4952 16.2203 10.5052 16.0833L10.6062 14.0453L10.4942 9.78032C10.4842 9.64332 10.3812 9.54232 10.2572 9.54232M11.2452 8.75632C11.2031 8.73165 11.155 8.71886 11.1062 8.71932C11.0562 8.71932 11.0062 8.73232 10.9692 8.75632C10.9316 8.77805 10.9002 8.80921 10.8783 8.84674C10.8564 8.88427 10.8446 8.92686 10.8442 8.97032V9.02032L10.7582 14.0643L10.8542 16.1073V16.1143C10.8602 16.1643 10.8782 16.2263 10.9142 16.2643C10.9642 16.3153 11.0342 16.3503 11.1102 16.3503C11.1754 16.3468 11.2373 16.3206 11.2852 16.2763C11.3097 16.2516 11.3291 16.2223 11.3421 16.19C11.3552 16.1577 11.3617 16.1231 11.3612 16.0883L11.3742 15.8873L11.4712 14.0493L11.3582 8.97432C11.3576 8.93455 11.3472 8.89554 11.3278 8.86081C11.3085 8.82607 11.2808 8.7967 11.2472 8.77532L11.2452 8.75632ZM12.0822 8.29932C12.0668 8.2819 12.0476 8.26818 12.0261 8.25918C12.0047 8.25017 11.9815 8.24612 11.9582 8.24732C11.8961 8.24507 11.8349 8.26334 11.7842 8.29932C11.7538 8.32346 11.7292 8.35398 11.7119 8.38871C11.6946 8.42344 11.6852 8.46154 11.6842 8.50032V8.52332L11.5702 14.0363L11.6332 15.0503L11.6852 16.0383C11.6868 16.111 11.7172 16.1801 11.7697 16.2303C11.8222 16.2806 11.8925 16.3079 11.9652 16.3063C12.0379 16.3047 12.1069 16.2743 12.1572 16.2218C12.2075 16.1693 12.2348 16.099 12.2332 16.0263L12.3582 14.0133L12.2332 8.47732C12.2321 8.43018 12.2188 8.38412 12.1946 8.34364C12.1705 8.30316 12.1362 8.26963 12.0952 8.24632M19.5472 11.3963C19.2112 11.3963 18.8842 11.4683 18.5982 11.5893C18.5375 10.9189 18.3217 10.2717 17.9678 9.69905C17.6139 9.12639 17.1316 8.6439 16.5591 8.28974C15.9866 7.93558 15.3395 7.71947 14.6691 7.65847C13.9987 7.59748 13.3232 7.69329 12.6962 7.93832C12.5082 8.01332 12.4692 8.08932 12.4582 8.23932V16.0513C12.4625 16.1243 12.4924 16.1935 12.5427 16.2466C12.5931 16.2996 12.6605 16.3332 12.7332 16.3413H19.5602C19.8818 16.3442 20.2007 16.2833 20.4984 16.1619C20.7962 16.0406 21.0669 15.8613 21.2949 15.6345C21.5228 15.4077 21.7034 15.1378 21.8262 14.8407C21.949 14.5435 22.0115 14.2249 22.0102 13.9033C22.0118 13.2519 21.7546 12.6264 21.2952 12.1646C20.8357 11.7027 20.2117 11.4422 19.5602 11.4403" fill="white"/>
</svg>
