<svg width="24" height="24" viewBox="0 0 24 24" fill="none" xmlns="http://www.w3.org/2000/svg">
<path d="M12.0096 2.01953C6.51455 2.01953 2.01855 6.51553 2.01855 12.0105C2.01855 17.5045 6.51455 22.0005 12.0096 22.0005C17.5036 22.0005 21.9996 17.5045 21.9996 12.0105C21.9996 6.51553 17.5536 2.01953 12.0096 2.01953ZM16.6046 16.4555C16.4056 16.7545 16.0556 16.8555 15.7546 16.6565C13.4056 15.2065 10.4586 14.9065 6.96155 15.7055C6.61355 15.8075 6.31355 15.5575 6.21355 15.2565C6.11256 14.9065 6.36255 14.6085 6.66355 14.5075C10.4586 13.6575 13.7566 14.0085 16.3536 15.6075C16.7036 15.7565 16.7536 16.1555 16.6046 16.4555ZM17.8046 13.7085C17.5536 14.0575 17.1046 14.2075 16.7536 13.9575C14.0566 12.3115 9.96155 11.8095 6.81455 12.8095C6.41655 12.9105 5.96455 12.7095 5.86555 12.3115C5.76455 11.9095 5.96555 11.4595 6.36455 11.3595C10.0106 10.2615 14.5076 10.8115 17.6036 12.7105C17.9036 12.8595 18.0536 13.3585 17.8046 13.7085ZM17.9036 10.9095C14.7066 9.01253 9.36156 8.81253 6.31355 9.76353C6.08176 9.83032 5.83314 9.80525 5.61936 9.69351C5.40557 9.58177 5.24305 9.39197 5.16555 9.16353C5.09758 8.93146 5.12195 8.68209 5.23359 8.46757C5.34523 8.25306 5.53548 8.09001 5.76455 8.01253C9.31155 6.96353 15.1566 7.16253 18.8536 9.36353C19.3026 9.61253 19.4526 10.2125 19.2026 10.6615C18.9526 11.0115 18.3536 11.1595 17.9036 10.9095Z" fill="white"/>
</svg>
