<svg width="24" height="24" viewBox="0 0 24 24" fill="none" xmlns="http://www.w3.org/2000/svg">
<path d="M3.8672 1V1.0157L0 3.3321V21.2461L3.8965 18.9141H22.2363V2.2774C22.2363 1.5754 21.659 1 20.957 1H3.8672ZM11.373 5.0098H14.6738L17.6582 14.961H15.0703L14.502 12.7715H11.5176L10.9473 14.9336H8.5313L11.373 5.0098ZM23.2363 5.0371V19.9141H4.172L2.1036 21.1524V21.6172C2.1036 22.3192 2.6829 22.8946 3.3849 22.8946H24V5.0371H23.2363ZM12.9668 6.6289L11.9727 10.9532H14.0195L12.9668 6.6289Z" fill="#E51050"/>
<path fill-rule="evenodd" clip-rule="evenodd" d="M11.373 5.0098H14.6738L17.6582 14.961H15.0703L14.502 12.7715H11.5176L10.9473 14.9336H8.5313L11.373 5.0098ZM11.9727 10.9532L12.9668 6.6289L14.0195 10.9532H11.9727Z" fill="white"/>
</svg>
