<svg width="24" height="24" viewBox="0 0 24 24" fill="none" xmlns="http://www.w3.org/2000/svg">
<path fill-rule="evenodd" clip-rule="evenodd" d="M7.60572 16.2285C7.45572 15.7525 7.35572 15.1445 7.34972 14.8305C7.34372 14.5195 7.41372 13.9995 7.41372 13.9995L2.70972 17.8485C1.88772 18.5125 0.782723 18.5115 0.262723 17.8445C-0.249277 17.1895 0.0127227 16.1535 0.825723 15.5315L0.859723 15.5065L9.47972 8.88946L4.64972 8.89945V8.89745C3.82972 8.89445 3.29572 8.34245 3.44972 7.67745C3.59972 7.02346 4.35672 6.50645 5.14472 6.50546H5.15772L14.6877 6.49545L11.5617 3.95246L11.5627 3.95145C11.0767 3.55146 11.1387 2.91846 11.6857 2.53646C12.2267 2.15846 13.0537 2.15646 13.5457 2.53446L13.5657 2.54946L21.0637 8.30646H21.0617C21.796 8.87149 22.4232 9.56341 22.9137 10.3495C23.4432 11.1945 23.7893 12.1412 23.9297 13.1285C24.0772 14.1589 23.9918 15.2094 23.6797 16.2025C23.3552 17.2275 22.812 18.1699 22.0877 18.9645C21.31 19.8216 20.3613 20.5063 19.3027 20.9745C18.1515 21.4859 16.9054 21.7489 15.6457 21.7465C14.3858 21.7536 13.1386 21.4947 11.9857 20.9865C10.9264 20.5227 9.97677 19.8409 9.19872 18.9855C8.47322 18.1935 7.92954 17.2525 7.60572 16.2285ZM15.6447 18.1215C17.1137 18.1195 18.4697 17.5595 19.4397 16.5715C19.8971 16.1098 20.2511 15.5553 20.4757 14.9455C20.6862 14.3664 20.7677 13.7483 20.7147 13.1345C20.6625 12.5354 20.4846 11.9541 20.1927 11.4285C19.9107 10.9155 19.5207 10.4525 19.0407 10.0615C18.0977 9.29646 16.8987 8.88446 15.6427 8.88646C14.3877 8.88845 13.1887 9.30345 12.2467 10.0715C11.7781 10.4503 11.3866 10.9158 11.0937 11.4425C10.7993 11.9753 10.6218 12.5647 10.5732 13.1715C10.5246 13.7784 10.6059 14.3886 10.8117 14.9615C11.0363 15.5704 11.3897 16.1236 11.8477 16.5835C12.8177 17.5695 14.1747 18.1255 15.6447 18.1215Z" fill="#EA7600"/>
<path d="M12.5097 13.2135C12.5557 12.4135 12.9477 11.7075 13.5397 11.2075C14.1608 10.6915 14.9443 10.4117 15.7517 10.4175C16.6017 10.4175 17.3827 10.7175 17.9627 11.2075C18.5547 11.7075 18.9457 12.4135 18.9907 13.2125C19.0357 14.0355 18.7057 14.7985 18.1257 15.3655C17.4869 15.9756 16.6351 16.3121 15.7517 16.3035C14.8678 16.3122 14.0153 15.9757 13.3757 15.3655C12.7957 14.7985 12.4647 14.0355 12.5097 13.2135Z" fill="#265787"/>
<path fill-rule="evenodd" clip-rule="evenodd" d="M19.4397 16.5715C18.4697 17.5595 17.1137 18.1195 15.6447 18.1215C14.1747 18.1255 12.8177 17.5695 11.8477 16.5835C11.3897 16.1236 11.0363 15.5704 10.8117 14.9615C10.6059 14.3886 10.5246 13.7784 10.5732 13.1715C10.6218 12.5647 10.7993 11.9753 11.0937 11.4425C11.3866 10.9158 11.7781 10.4503 12.2467 10.0715C13.1887 9.30345 14.3877 8.88845 15.6427 8.88646C16.8987 8.88446 18.0977 9.29646 19.0407 10.0615C19.5207 10.4525 19.9107 10.9155 20.1927 11.4285C20.4846 11.9541 20.6625 12.5354 20.7147 13.1345C20.7677 13.7483 20.6862 14.3664 20.4757 14.9455C20.2511 15.5553 19.8971 16.1098 19.4397 16.5715ZM13.5397 11.2075C12.9477 11.7075 12.5557 12.4135 12.5097 13.2135C12.4647 14.0355 12.7957 14.7985 13.3757 15.3655C14.0153 15.9757 14.8678 16.3122 15.7517 16.3035C16.6351 16.3121 17.4869 15.9756 18.1257 15.3655C18.7057 14.7985 19.0357 14.0355 18.9907 13.2125C18.9457 12.4135 18.5547 11.7075 17.9627 11.2075C17.3827 10.7175 16.6017 10.4175 15.7517 10.4175C14.9443 10.4117 14.1608 10.6915 13.5397 11.2075Z" fill="white"/>
</svg>
