<svg width="24" height="24" viewBox="0 0 24 24" fill="none" xmlns="http://www.w3.org/2000/svg">
<g clip-path="url(#clip0_944_2462)">
<path d="M21.1863 8.02544C22.2503 8.21745 23.1184 8.36545 23.3174 8.81544C23.5404 9.32545 22.3814 9.35645 21.7974 9.36744C18.9982 9.42144 17.3112 9.47744 17.2262 10.4284C17.1162 11.6525 18.4222 12.8856 19.7122 14.6136C20.8903 16.1906 22.2294 17.7487 21.8444 19.1998C21.3624 21.0088 19.1453 21.3918 17.0342 21.3918C15.0131 21.3928 13.096 21.0688 12.291 20.9098C11.289 20.7108 11.439 20.2158 11.706 20.0568C12.004 19.8788 13.708 19.8748 14.893 19.8048C15.8681 19.7468 18.6982 19.7488 19.1393 19.0238C19.6793 18.1348 18.3563 16.6157 17.1392 15.0236C15.6202 13.0396 13.953 10.9895 14.8361 9.49144C15.9761 7.55544 19.3203 7.68845 21.1863 8.02544ZM7.4958 10.9754C9.2678 10.8714 11.4219 11.1814 12.63 12.1055C12.97 12.3659 13.2255 12.721 13.3643 13.1262C13.5031 13.5313 13.519 13.9685 13.41 14.3826C12.712 17.1347 10.1059 20.4659 4.3167 23.026C2.4756 23.839 1.0275 24.151 0.723502 23.932C0.397502 23.698 1.3475 21.88 1.6325 21.2779C2.5576 19.3259 3.7116 17.4247 4.8377 15.6827C5.2517 15.0427 5.8927 13.9306 6.4717 14.0206C6.9907 14.1006 6.3827 15.2806 5.9837 16.0316C5.3117 17.2917 3.4607 20.7919 4.0717 21.0009C5.4217 21.4629 11.752 16.6467 10.8179 13.9646C10.3859 12.7196 7.6378 12.6016 5.9057 12.6016C5.1187 12.6016 3.3977 12.7876 3.3027 12.1846C3.2007 11.6285 5.9157 11.0685 7.4947 10.9745M11.8681 0.0130449C13.9361 -0.0849551 16.3822 0.355045 16.8383 1.81514C17.5853 4.20525 13.7981 7.69234 10.5 9.40244C9.691 9.82244 9.2 9.93845 8.996 9.90944C8.801 9.88244 8.771 9.68845 8.834 9.55445C8.952 9.30245 9.484 8.79044 10.195 8.23244C13.9101 5.33235 15.1182 3.20424 14.4162 2.34214C13.9662 1.79014 12.0841 1.40514 10.129 1.40514C9.599 1.40514 8.204 1.52814 8.061 1.03814C7.9429 0.634045 9.8149 0.108045 11.8669 0.0120449" fill="#EE2722"/>
</g>
<defs>
<clipPath id="clip0_944_2462">
<rect width="24" height="24" fill="white"/>
</clipPath>
</defs>
</svg>
