<svg width="24" height="24" viewBox="0 0 24 24" fill="none" xmlns="http://www.w3.org/2000/svg">
<g clip-path="url(#clip0_944_2456)">
<path fill-rule="evenodd" clip-rule="evenodd" d="M11.999 2.818C6.92905 2.818 2.81905 6.927 2.81905 11.998C2.81905 17.066 6.92905 21.178 11.999 21.178C17.069 21.178 21.179 17.067 21.179 11.998C21.179 6.928 17.069 2.818 11.999 2.818ZM5.77005 16.588H9.51205H9.51305V15.911H6.53905V10.565H5.77005V16.588ZM13.023 16.588H13.642H13.643V12.258H12.957V14.647C12.957 15.53 12.495 16.108 11.776 16.108C11.23 16.108 10.883 15.778 10.883 15.258V12.258H10.197V15.529C10.197 16.248 10.734 16.711 11.577 16.711C12.212 16.711 12.618 16.488 13.023 15.918V16.588ZM15.801 5.506C14.317 5.506 13.112 6.711 13.112 8.195C13.112 9.68 14.316 10.883 15.801 10.883C17.286 10.883 18.489 9.679 18.489 8.195C18.489 6.711 17.285 5.506 15.801 5.506ZM18.679 16.571V16.051C18.604 16.066 18.571 16.066 18.53 16.068C18.29 16.068 18.157 15.945 18.157 15.73V13.318C18.157 12.548 17.596 12.136 16.53 12.136C15.482 12.136 14.837 12.54 14.796 13.54H15.489C15.548 13.01 15.86 12.77 16.505 12.77C17.124 12.77 17.472 13.003 17.472 13.415V13.597C17.472 13.886 17.298 14.011 16.753 14.077C15.778 14.2 15.63 14.234 15.364 14.341C14.86 14.548 14.604 14.937 14.604 15.464C14.604 16.249 15.149 16.712 16.026 16.712C16.579 16.712 17.116 16.481 17.497 16.075C17.571 16.407 17.868 16.645 18.208 16.645C18.349 16.645 18.456 16.63 18.679 16.571Z" fill="#000080"/>
<path d="M21.179 0.129C20.4659 0.129 19.7819 0.412305 19.2776 0.91659C18.7733 1.42088 18.49 2.10483 18.49 2.818C18.49 3.53117 18.7733 4.21512 19.2776 4.71941C19.7819 5.2237 20.4659 5.507 21.179 5.507C21.8922 5.507 22.5762 5.2237 23.0805 4.71941C23.5847 4.21512 23.868 3.53117 23.868 2.818C23.868 2.10483 23.5847 1.42088 23.0805 0.91659C22.5762 0.412305 21.8922 0.129 21.179 0.129Z" fill="#000080"/>
<path fill-rule="evenodd" clip-rule="evenodd" d="M0.107047 10.34L0.379047 10.377C0.332047 10.715 0.299047 11.057 0.281047 11.397L0.00604688 11.381C0.0250469 11.035 0.0590469 10.684 0.107047 10.34ZM3.95105 3.084L4.13505 3.289C3.88305 3.516 3.63805 3.758 3.40705 4.006L3.20505 3.818C3.44205 3.564 3.69305 3.316 3.95105 3.084ZM5.62205 1.824L5.76805 2.059C5.47905 2.238 5.19505 2.434 4.92505 2.637L4.75905 2.418C5.03605 2.209 5.32605 2.01 5.62205 1.824ZM2.41605 19.232C2.20705 18.955 2.00805 18.666 1.82305 18.369L2.05605 18.224C2.23705 18.513 2.43105 18.797 2.63605 19.068L2.41605 19.232ZM0.871047 16.506L1.12605 16.402C1.25205 16.713 1.39405 17.023 1.54705 17.324L1.55205 17.334L1.30705 17.459L1.30205 17.449C1.14505 17.141 1.00005 16.824 0.871047 16.506ZM0.566047 9.372L0.297047 9.309C0.375047 8.971 0.469047 8.631 0.577047 8.299L0.838047 8.386C0.734047 8.708 0.642047 9.04 0.566047 9.372ZM-0.00195312 12.43L0.273047 12.42C0.285047 12.76 0.312047 13.104 0.354047 13.44L0.0810469 13.473C0.0380469 13.129 0.0100469 12.778 -0.00195312 12.43ZM0.519047 15.52C0.417047 15.188 0.328047 14.846 0.255047 14.506L0.524047 14.45C0.595047 14.782 0.682047 15.114 0.782047 15.44L0.519047 15.52ZM11.562 0L11.572 0.275C11.232 0.287 10.89 0.314 10.552 0.355L10.518 0.082C10.863 0.039 11.214 0.012 11.562 0ZM23.476 9.558C23.406 9.226 23.32 8.892 23.22 8.566L23.484 8.485C23.586 8.817 23.674 9.159 23.746 9.499L23.476 9.558ZM16.673 0.94C16.993 1.075 17.311 1.225 17.62 1.389L17.492 1.631C17.191 1.473 16.88 1.325 16.566 1.192L16.673 0.94ZM14.682 0.295C15.022 0.373 15.36 0.467 15.692 0.572L15.607 0.836C15.283 0.731 14.951 0.639 14.619 0.563L14.682 0.295ZM7.58905 1.127C7.27905 1.254 6.97105 1.395 6.67305 1.545L6.65805 1.553L6.53305 1.309L6.54805 1.301C6.85305 1.145 7.16805 1 7.48505 0.873L7.58905 1.127ZM24.001 11.578L23.726 11.588C23.714 11.248 23.687 10.904 23.646 10.566L23.919 10.533C23.9618 10.8799 23.9892 11.2286 24.001 11.578ZM12.61 0.007C12.957 0.025 13.307 0.058 13.653 0.105L13.615 0.378C13.279 0.331 12.935 0.298 12.596 0.28L12.61 0.007ZM9.48505 0.257L9.54305 0.527C9.21105 0.598 8.87705 0.684 8.55205 0.783L8.47105 0.521C8.80405 0.417 9.14505 0.329 9.48505 0.257ZM2.15105 5.619L1.92005 5.469C2.10905 5.178 2.31305 4.891 2.52605 4.615L2.74305 4.785C2.53505 5.053 2.33605 5.334 2.15105 5.619ZM1.19505 7.425L0.942047 7.318C1.07705 6.998 1.22805 6.68 1.39105 6.373L1.63405 6.501C1.47505 6.8 1.32705 7.112 1.19505 7.425ZM18.367 22.177L18.222 21.943C18.509 21.764 18.794 21.568 19.066 21.364L19.23 21.583C18.953 21.792 18.662 21.991 18.367 22.177ZM21.464 19.389L21.247 19.219C21.456 18.951 21.655 18.672 21.841 18.387L22.071 18.535C21.882 18.828 21.679 19.116 21.464 19.389ZM20.038 20.918L19.854 20.715C20.106 20.486 20.353 20.246 20.583 19.998L20.784 20.186C20.548 20.439 20.296 20.688 20.038 20.918ZM22.602 17.633L22.358 17.504C22.5183 17.2031 22.6647 16.8951 22.797 16.581L23.051 16.688C22.916 17.008 22.764 17.326 22.602 17.633ZM23.889 13.668L23.616 13.629C23.665 13.293 23.698 12.949 23.716 12.611L23.991 12.625C23.971 12.973 23.938 13.322 23.889 13.668ZM23.419 15.707L23.155 15.621C23.261 15.299 23.353 14.967 23.43 14.634L23.698 14.697C23.62 15.037 23.526 15.375 23.419 15.707ZM22.876 7.604C22.749 7.289 22.606 6.975 22.452 6.672L22.696 6.547C22.855 6.857 23.001 7.178 23.132 7.5L22.876 7.604ZM9.30405 23.697C8.96505 23.619 8.62605 23.525 8.29505 23.418L8.38005 23.156C8.70305 23.261 9.03505 23.353 9.36605 23.429L9.30405 23.697ZM11.377 23.991C11.03 23.971 10.679 23.938 10.334 23.889L10.372 23.618C10.709 23.665 11.052 23.698 11.391 23.716L11.377 23.991ZM16.399 22.873C16.712 22.746 17.022 22.603 17.325 22.449L17.331 22.447L17.454 22.693L17.45 22.695C17.142 22.854 16.821 22.998 16.503 23.129L16.399 22.873ZM5.46605 22.072C5.17405 21.885 4.88605 21.68 4.61205 21.467L4.78205 21.25C5.05005 21.457 5.33005 21.658 5.61505 21.842L5.46605 22.072ZM12.425 24L12.416 23.725C12.755 23.713 13.099 23.686 13.435 23.645L13.47 23.916C13.124 23.959 12.773 23.986 12.425 24ZM7.31505 23.053C6.99405 22.918 6.67605 22.766 6.36905 22.604L6.49805 22.36C6.79805 22.52 7.10905 22.666 7.42205 22.799L7.31505 23.053ZM3.81605 20.787C3.56205 20.551 3.31505 20.299 3.08205 20.041L3.28705 19.857C3.51405 20.109 3.75505 20.356 4.00405 20.586L3.81605 20.787ZM14.503 23.745L14.444 23.475C14.776 23.402 15.11 23.316 15.435 23.217L15.517 23.479C15.183 23.583 14.843 23.671 14.503 23.745Z" fill="#808080"/>
<path d="M15.323 15.447C15.323 15.918 15.637 16.107 16.175 16.107C16.845 16.107 17.472 15.711 17.472 15.091V14.446C17.242 14.553 17.093 14.587 16.365 14.686C15.63 14.795 15.323 14.992 15.323 15.447Z" fill="#000080"/>
<path d="M13.112 8.195C13.112 6.711 14.317 5.506 15.801 5.506C17.285 5.506 18.489 6.711 18.489 8.195C18.489 9.679 17.286 10.883 15.801 10.883C14.316 10.883 13.112 9.68 13.112 8.195Z" fill="white"/>
<path d="M9.51205 16.588H5.77005V10.565H6.53905V15.911H9.51305V16.588H9.51205Z" fill="white"/>
<path d="M13.642 16.588H13.023V15.918C12.618 16.488 12.212 16.711 11.577 16.711C10.734 16.711 10.197 16.248 10.197 15.529V12.258H10.883V15.258C10.883 15.778 11.23 16.108 11.776 16.108C12.495 16.108 12.957 15.53 12.957 14.647V12.258H13.643V16.588H13.642Z" fill="white"/>
<path fill-rule="evenodd" clip-rule="evenodd" d="M18.679 16.051V16.571C18.456 16.63 18.349 16.645 18.208 16.645C17.868 16.645 17.571 16.407 17.497 16.075C17.116 16.481 16.579 16.712 16.026 16.712C15.149 16.712 14.604 16.249 14.604 15.464C14.604 14.937 14.86 14.548 15.364 14.341C15.63 14.234 15.778 14.2 16.753 14.077C17.298 14.011 17.472 13.886 17.472 13.597V13.415C17.472 13.003 17.124 12.77 16.505 12.77C15.86 12.77 15.548 13.01 15.489 13.54H14.796C14.837 12.54 15.482 12.136 16.53 12.136C17.596 12.136 18.157 12.548 18.157 13.318V15.73C18.157 15.945 18.29 16.068 18.53 16.068C18.571 16.066 18.604 16.066 18.679 16.051ZM16.175 16.107C15.637 16.107 15.323 15.918 15.323 15.447C15.323 14.992 15.63 14.795 16.365 14.686C17.093 14.587 17.242 14.553 17.472 14.446V15.091C17.472 15.711 16.845 16.107 16.175 16.107Z" fill="white"/>
</g>
<defs>
<clipPath id="clip0_944_2456">
<rect width="24" height="24" fill="white"/>
</clipPath>
</defs>
</svg>
