<svg width="24" height="24" viewBox="0 0 24 24" fill="none" xmlns="http://www.w3.org/2000/svg">
<g clip-path="url(#clip0_944_2454)">
<path fill-rule="evenodd" clip-rule="evenodd" d="M15.1495 0.38L14.2495 0.18L13.1795 0.05L11.9095 0L11.0695 0.02L10.2995 0.06L9.58945 0.12L8.94945 0.22L8.36945 0.34L7.85945 0.49L7.41945 0.67L7.03945 0.87L6.72945 1.1L6.47945 1.36L6.30945 1.64L6.19945 1.95L6.14945 2.29L6.16945 2.66L6.17945 5.41H12.0195V6.24H3.85945L3.79945 6.23H3.63945L3.39945 6.24L3.07945 6.29L2.71945 6.39L2.31945 6.55L1.89945 6.79L1.47945 7.12L1.07945 7.56L0.719453 8.13L0.399453 8.84L0.159453 9.71L-0.000546876 10.75L-0.0605469 11.97L-0.0105469 13.2L0.129453 14.25L0.339453 15.13L0.619453 15.86L0.939453 16.45L1.28945 16.91L1.64945 17.27L2.00945 17.53L2.35945 17.71L2.67945 17.83L2.95945 17.9L3.16945 17.93H5.39945V14.87L5.41945 14.66L5.45945 14.39L5.52945 14.07L5.62945 13.72L5.77945 13.35L5.97945 12.99L6.24945 12.64L6.57945 12.32L6.98945 12.05L7.48945 11.83L8.07945 11.69L8.76945 11.64H14.7395L14.9495 11.62L15.2095 11.58L15.5095 11.51L15.8395 11.41L16.1895 11.27L16.5395 11.08L16.8695 10.83L17.1695 10.52L17.4295 10.14L17.6395 9.68L17.7695 9.13L17.8195 8.5V3.16L17.8295 3.03L17.8095 2.83L17.7695 2.57L17.6695 2.27L17.5095 1.94L17.2595 1.6L16.9195 1.26L16.4695 0.94L15.8795 0.64L15.1495 0.38ZM7.71945 2.49L7.94945 2.16L8.27945 1.94L8.68945 1.85L9.09945 1.94L9.42945 2.16L9.65945 2.49L9.73945 2.9L9.65945 3.31L9.42945 3.65L9.09945 3.87L8.68945 3.96L8.27945 3.87L7.94945 3.65L7.71945 3.31L7.63945 2.9L7.71945 2.49Z" fill="#3776AB"/>
<path fill-rule="evenodd" clip-rule="evenodd" d="M21.0395 6.11L21.3195 6.17L21.6395 6.29L21.9895 6.47L22.3495 6.74L22.7095 7.09L23.0595 7.56L23.3795 8.15L23.6595 8.88L23.8695 9.76L24.0095 10.8L24.0595 12.03L23.9995 13.26L23.8395 14.3L23.5995 15.16L23.2795 15.87L22.9195 16.44L22.5195 16.89L22.0995 17.22L21.6795 17.46L21.2795 17.62L20.9195 17.71L20.5995 17.76L20.3595 17.78L20.1995 17.77H11.9795V18.59H17.8195L17.8295 21.35L17.8495 21.71L17.7995 22.05L17.6895 22.36L17.5195 22.65L17.2695 22.9L16.9595 23.14L16.5795 23.34L16.1395 23.51L15.6295 23.66L15.0495 23.79L14.4095 23.88L13.6995 23.95L12.9295 23.99L12.0895 24L10.8195 23.96L9.74945 23.82L8.84945 23.62L8.11945 23.37L7.52945 23.07L7.07945 22.74L6.73945 22.4L6.48945 22.06L6.32945 21.73L6.22945 21.43L6.18945 21.18L6.16945 20.98L6.17945 20.85V15.51L6.22945 14.87L6.35945 14.33L6.56945 13.87L6.82945 13.49L7.12945 13.17L7.45945 12.93L7.80945 12.73L8.15945 12.59L8.48945 12.49L8.78945 12.43L9.04945 12.39L9.25945 12.37L9.38945 12.36H15.2295L15.9195 12.31L16.5095 12.17L17.0095 11.96L17.4195 11.68L17.7495 11.36L18.0195 11.01L18.2195 10.65L18.3695 10.29L18.4695 9.94L18.5395 9.62L18.5795 9.34L18.5995 9.13V6.07H20.6895L20.8295 6.08L21.0395 6.11ZM14.3395 20.69L14.5695 20.36L14.8995 20.13L15.3095 20.05L15.7195 20.13L16.0495 20.36L16.2795 20.69L16.3595 21.1L16.2795 21.51L16.0495 21.84L15.7195 22.07L15.3095 22.15L14.8995 22.07L14.5695 21.84L14.3395 21.51L14.2595 21.1L14.3395 20.69Z" fill="#FFD43B"/>
</g>
<defs>
<clipPath id="clip0_944_2454">
<rect width="24" height="24" fill="white"/>
</clipPath>
</defs>
</svg>
