<svg width="20" height="20" viewBox="0 0 20 20" fill="none" xmlns="http://www.w3.org/2000/svg">
<path fill-rule="evenodd" clip-rule="evenodd" d="M16.667 6.66601C16.667 6.81018 16.657 6.95518 16.6378 7.10018C17.6653 7.67851 18.3337 8.77851 18.3337 9.99935C18.3337 11.2202 17.6653 12.3202 16.6378 12.8985C16.657 13.0435 16.667 13.1885 16.667 13.3327C16.667 15.3152 14.8812 16.9018 12.8995 16.6368C12.322 17.6643 11.222 18.3327 10.0003 18.3327C8.77866 18.3327 7.67866 17.6643 7.10116 16.6368C5.11532 16.9018 3.33366 15.3152 3.33366 13.3327C3.33386 13.1875 3.3436 13.0424 3.36283 12.8985C2.33533 12.3202 1.66699 11.2202 1.66699 9.99935C1.66699 8.77851 2.33533 7.67851 3.36283 7.10018C3.34366 6.95518 3.33366 6.81018 3.33366 6.66601C3.33366 4.68352 5.11532 3.09268 7.10116 3.36185C7.67866 2.33435 8.77866 1.66602 10.0003 1.66602C11.222 1.66602 12.322 2.33435 12.8995 3.36185C14.8812 3.09268 16.667 4.68352 16.667 6.66601ZM11.0003 14.666V13.7619C12.6428 13.486 13.5003 12.406 13.5003 11.3327C13.5003 10.3994 13.067 8.83269 10.167 8.83269C8.50035 8.83269 8.50035 8.31102 8.50035 7.99936C8.50035 7.59602 9.08451 7.16603 10.167 7.16603C11.1545 7.16603 11.322 7.69769 11.3337 8.01436L12.167 7.99936H13.0003C13.0003 7.14436 12.4453 5.94186 11.0003 5.60019V4.67603H9.33368V5.57019C7.69118 5.84602 6.83368 6.92602 6.83368 7.99936C6.83368 8.93269 7.26701 10.4994 10.167 10.4994C11.8337 10.4994 11.8337 11.0627 11.8337 11.3327C11.8337 11.6785 11.317 12.166 10.167 12.166C8.63285 12.166 8.50951 11.4519 8.50035 11.3327H6.83368C6.83368 12.0977 7.38451 13.4602 9.33368 13.766V14.666H11.0003Z" fill="white"/>
</svg>
