<svg width="20" height="20" viewBox="0 0 20 20" fill="none" xmlns="http://www.w3.org/2000/svg">
<path d="M15.2445 3.5775L14.3395 4.4825L13.4345 3.5775C13.3572 3.50005 13.2653 3.4386 13.1642 3.39667C13.0631 3.35475 12.9548 3.33317 12.8453 3.33317C12.7359 3.33317 12.6275 3.35475 12.5264 3.39667C12.4253 3.4386 12.3335 3.50005 12.2562 3.5775L11.2153 4.61833C10.4271 4.3211 9.59187 4.16811 8.74949 4.16667C4.84449 4.16667 1.66699 7.34417 1.66699 11.25C1.66699 15.1558 4.84449 18.3333 8.74949 18.3333C12.6545 18.3333 15.8328 15.1558 15.8328 11.25C15.8323 10.4983 15.7111 9.75156 15.4737 9.03833L16.5953 7.91667C16.6728 7.83934 16.7342 7.74751 16.7762 7.64641C16.8181 7.54532 16.8397 7.43695 16.8397 7.3275C16.8397 7.21806 16.8181 7.10969 16.7762 7.00859C16.7342 6.90749 16.6728 6.81566 16.5953 6.73833L15.5178 5.66083L16.4262 4.7525C16.617 4.56167 17.1303 4.16667 17.5003 4.16667H18.3337V2.5H17.5003C16.3337 2.5 15.347 3.4725 15.2445 3.5775ZM8.74949 8.33333C7.97032 8.33333 7.23866 8.63667 6.68699 9.1875C6.41557 9.45788 6.20041 9.77936 6.05395 10.1334C5.90748 10.4874 5.83261 10.8669 5.83366 11.25H4.16699C4.16699 10.0267 4.64283 8.87583 5.50783 8.01C5.93245 7.58281 6.43761 7.24411 6.99406 7.01352C7.5505 6.78294 8.14716 6.66504 8.74949 6.66667V8.33333Z" fill="white"/>
</svg>
