<svg width="20" height="20" viewBox="0 0 20 20" fill="none" xmlns="http://www.w3.org/2000/svg">
<path d="M17.9265 5.09379L14.6849 8.33463L11.739 5.38796L14.9799 2.14713C13.991 1.74061 12.904 1.63577 11.8557 1.8458C10.8074 2.05584 9.84471 2.57135 9.0888 3.32744C8.3329 4.08352 7.81761 5.04636 7.60782 6.09471C7.39804 7.14306 7.50313 8.23005 7.90988 9.21879L2.67988 14.448C2.60243 14.5253 2.54098 14.6171 2.49905 14.7182C2.45713 14.8193 2.43555 14.9277 2.43555 15.0371C2.43555 15.1466 2.45713 15.2549 2.49905 15.356C2.54098 15.4571 2.60243 15.549 2.67988 15.6263L4.44821 17.3946C4.52554 17.4721 4.61737 17.5335 4.71847 17.5755C4.81957 17.6174 4.92794 17.639 5.03738 17.639C5.14683 17.639 5.2552 17.6174 5.35629 17.5755C5.45739 17.5335 5.54922 17.4721 5.62655 17.3946L10.8557 12.1646C11.8445 12.5717 12.9317 12.677 13.9803 12.4673C15.0289 12.2576 15.992 11.7423 16.7482 10.9863C17.504 10.2299 18.0191 9.2668 18.2288 8.21829C18.4384 7.16978 18.3333 6.08268 17.9265 5.09379Z" fill="white"/>
</svg>
