<svg width="20" height="20" viewBox="0 0 20 20" fill="none" xmlns="http://www.w3.org/2000/svg">
<path d="M4.16699 16.666V14.9993H15.8337V16.666H4.16699ZM4.16699 13.7493L3.10449 7.06185C3.07671 7.06185 3.04546 7.06532 3.01074 7.07227C2.97602 7.07921 2.94477 7.08268 2.91699 7.08268C2.56977 7.08268 2.27463 6.96115 2.03158 6.7181C1.78852 6.47504 1.66699 6.1799 1.66699 5.83268C1.66699 5.48546 1.78852 5.19032 2.03158 4.94727C2.27463 4.70421 2.56977 4.58268 2.91699 4.58268C3.26421 4.58268 3.55935 4.70421 3.80241 4.94727C4.04546 5.19032 4.16699 5.48546 4.16699 5.83268C4.16699 5.9299 4.15658 6.02018 4.13574 6.10352C4.11491 6.18685 4.0906 6.26324 4.06283 6.33268L6.66699 7.49935L9.27116 3.93685C9.11838 3.82574 8.99338 3.6799 8.89616 3.49935C8.79894 3.31879 8.75032 3.12435 8.75032 2.91602C8.75032 2.56879 8.87185 2.27365 9.11491 2.0306C9.35796 1.78754 9.6531 1.66602 10.0003 1.66602C10.3475 1.66602 10.6427 1.78754 10.8857 2.0306C11.1288 2.27365 11.2503 2.56879 11.2503 2.91602C11.2503 3.12435 11.2017 3.31879 11.1045 3.49935C11.0073 3.6799 10.8823 3.82574 10.7295 3.93685L13.3337 7.49935L15.9378 6.33268C15.91 6.26324 15.8857 6.18685 15.8649 6.10352C15.8441 6.02018 15.8337 5.9299 15.8337 5.83268C15.8337 5.48546 15.9552 5.19032 16.1982 4.94727C16.4413 4.70421 16.7364 4.58268 17.0837 4.58268C17.4309 4.58268 17.726 4.70421 17.9691 4.94727C18.2121 5.19032 18.3337 5.48546 18.3337 5.83268C18.3337 6.1799 18.2121 6.47504 17.9691 6.7181C17.726 6.96115 17.4309 7.08268 17.0837 7.08268C17.0559 7.08268 17.0246 7.07921 16.9899 7.07227C16.9552 7.06532 16.9239 7.06185 16.8962 7.06185L15.8337 13.7493H4.16699ZM5.58366 12.0827H14.417L14.9587 8.60352L12.7712 9.56185L10.0003 5.74935L7.22949 9.56185L5.04199 8.60352L5.58366 12.0827Z" fill="#E3E3E3"/>
</svg>
