<svg width="20" height="20" viewBox="0 0 20 20" fill="none" xmlns="http://www.w3.org/2000/svg">
<path d="M17.0837 13.3327H12.5003V12.4993H15.8337C16.7503 12.4993 17.5003 11.7493 17.5003 10.8327V3.33268C17.5003 2.41602 16.7503 1.66602 15.8337 1.66602H4.16699C3.25033 1.66602 2.50033 2.41602 2.50033 3.33268V10.8327C2.50033 11.7493 3.25033 12.4993 4.16699 12.4993H7.50032V13.3327H2.91699C2.22533 13.3327 1.66699 13.891 1.66699 14.5827V17.0827C1.66699 17.7743 2.22533 18.3327 2.91699 18.3327H17.0837C17.7753 18.3327 18.3337 17.7743 18.3337 17.0827V14.5827C18.3337 13.891 17.7753 13.3327 17.0837 13.3327ZM4.16699 3.33268H15.8337V10.8327H4.16699V3.33268ZM12.5003 16.666H4.16699V14.9993H12.5003V16.666ZM15.0003 16.666C14.542 16.666 14.167 16.291 14.167 15.8327C14.167 15.3743 14.542 14.9993 15.0003 14.9993C15.4587 14.9993 15.8337 15.3743 15.8337 15.8327C15.8337 16.291 15.4587 16.666 15.0003 16.666Z" fill="white"/>
</svg>
