<svg width="20" height="20" viewBox="0 0 20 20" fill="none" xmlns="http://www.w3.org/2000/svg">
<path d="M7.02868 17.138C8.14118 17.138 9.18784 16.7047 9.97451 15.918L15.9195 9.97385C16.6994 9.19144 17.1373 8.13173 17.1371 7.02701C17.137 5.92229 16.6988 4.8627 15.9187 4.08051C15.5325 3.69263 15.0732 3.38516 14.5674 3.1759C14.0616 2.96663 13.5194 2.85972 12.972 2.86135C11.8595 2.86135 10.8137 3.29468 10.027 4.08135L4.08201 10.0255C3.3023 10.8079 2.86441 11.8674 2.86426 12.972C2.8641 14.0766 3.30168 15.1362 4.08118 15.9188C4.46754 16.3068 4.92696 16.6142 5.43288 16.8235C5.9388 17.0328 6.48119 17.1397 7.02868 17.138ZM11.2045 5.25968C11.436 5.02699 11.7113 4.84251 12.0146 4.71692C12.3178 4.59133 12.643 4.52713 12.9712 4.52801C13.6395 4.52801 14.2678 4.78801 14.7395 5.25968C15.2077 5.72886 15.4708 6.36458 15.4709 7.02742C15.4711 7.69027 15.2084 8.32612 14.7403 8.79551L12.3295 11.2055L8.79451 7.66885L11.2045 5.25968Z" fill="white"/>
</svg>
