<svg width="20" height="20" viewBox="0 0 20 20" fill="none" xmlns="http://www.w3.org/2000/svg">
<path d="M9.57378 18.1289C9.81878 18.2597 10.1263 18.2589 10.3713 18.1281C17.048 14.5414 17.5221 7.53391 17.5163 5.54141C17.5157 5.38127 17.4683 5.22479 17.3801 5.09113C17.2919 4.95748 17.1666 4.85245 17.0196 4.78891L10.3113 1.81724C10.2045 1.77019 10.0891 1.74595 9.97245 1.74609C9.85578 1.74624 9.74043 1.77076 9.63379 1.81808L2.97212 4.78974C2.82728 4.85332 2.70377 4.95718 2.61631 5.08897C2.52884 5.22076 2.4811 5.37492 2.47878 5.53308C2.45045 7.51558 2.84962 14.5381 9.57378 18.1289ZM7.22878 8.57808L9.13962 10.4889L12.7171 6.91141L13.8955 8.08974L9.13962 12.8456L6.05045 9.75641L7.22878 8.57808Z" fill="white"/>
</svg>
