<svg width="20" height="20" viewBox="0 0 20 20" fill="none" xmlns="http://www.w3.org/2000/svg">
<path d="M16.6378 7.10018C16.657 6.95518 16.667 6.81018 16.667 6.66601C16.667 4.68352 14.8812 3.09268 12.8995 3.36185C12.322 2.33435 11.222 1.66602 10.0003 1.66602C8.77866 1.66602 7.67866 2.33435 7.10116 3.36185C5.11532 3.09268 3.33366 4.68352 3.33366 6.66601C3.33366 6.81018 3.34366 6.95518 3.36283 7.10018C2.33533 7.67851 1.66699 8.77851 1.66699 9.99935C1.66699 11.2202 2.33533 12.3202 3.36283 12.8985C3.3436 13.0424 3.33386 13.1875 3.33366 13.3327C3.33366 15.3152 5.11532 16.9018 7.10116 16.6368C7.67866 17.6643 8.77866 18.3327 10.0003 18.3327C11.222 18.3327 12.322 17.6643 12.8995 16.6368C14.8812 16.9018 16.667 15.3152 16.667 13.3327C16.667 13.1885 16.657 13.0435 16.6378 12.8985C17.6653 12.3202 18.3337 11.2202 18.3337 9.99935C18.3337 8.77851 17.6653 7.67851 16.6378 7.10018ZM9.12949 13.6793L6.07366 10.5843L7.26032 9.41435L9.14116 11.3193L12.747 7.74101L13.9203 8.92435L9.12949 13.6793Z" fill="white"/>
</svg>
