<svg width="24" height="24" viewBox="0 0 24 24" fill="none" xmlns="http://www.w3.org/2000/svg">
<path fill-rule="evenodd" clip-rule="evenodd" d="M5.98198 13.391C3.66698 11.271 1.83398 8.653 1.83398 4.873C2.30958 4.873 2.78584 4.87256 3.26217 4.87211C4.21506 4.87122 5.16824 4.87033 6.11698 4.873C6.11698 7.383 7.42998 9.22 9.23598 10.859L10.314 11.717L7.09198 14.271L5.98198 13.391ZM11.248 17.568L14.426 14.988C14.784 15.274 15.15 15.566 15.506 15.846C17.784 17.89 19.563 20.357 19.572 23.99H15.406C15.406 21.685 14.06 19.948 12.24 18.355L11.248 17.568Z" fill="#D93A2C"/>
<path d="M17.504 0L12.873 4.875L15.406 4.879C15.406 7.483 14.079 9.459 12.086 11.039L5.69298 16.104C3.13398 18.131 1.83398 20.496 1.83398 23.99C1.84398 23.981 6.11698 24.016 6.11698 23.99C6.11698 22.08 6.84698 20.409 8.33998 19.197L15.063 13.742C17.633 11.657 19.577 8.882 19.58 4.875H22.166L17.504 0Z" fill="#4FB850"/>
</svg>
