<svg width="24" height="24" viewBox="0 0 24 24" fill="none" xmlns="http://www.w3.org/2000/svg">
<path fill-rule="evenodd" clip-rule="evenodd" d="M16.131 5.53449C16.212 5.51549 16.29 5.50149 16.405 5.50149L16.407 5.49949C16.4281 5.52017 16.454 5.5378 16.4802 5.5556C16.5211 5.58342 16.5626 5.61163 16.587 5.65249C16.6025 5.67345 16.6122 5.69462 16.6219 5.7159C16.6335 5.74132 16.6452 5.76691 16.667 5.79249C16.667 5.95349 16.621 6.05949 16.527 6.12549L16.513 6.14049C16.4852 6.08599 16.4596 6.03122 16.4339 5.97632C16.4096 5.92445 16.3852 5.87247 16.359 5.82049C16.3329 5.78484 16.3033 5.75168 16.2737 5.71848C16.226 5.6651 16.1783 5.61162 16.145 5.54749H16.131V5.53449ZM4.843 18.6955H5.77H5.773C5.729 17.0255 5.587 15.1805 5.345 13.1655H4.25L2.903 17.2295H2.895L1.56 13.1655H0.41C0.192 14.8855 0.055 16.7295 0 18.6955H0.845C0.865464 17.2239 0.930493 15.7532 1.04 14.2855H1.05L2.45 18.6955H3.155L4.565 14.2855H4.573C4.72685 15.7509 4.81693 17.2223 4.843 18.6955ZM8.295 19.0755C8.911 18.1485 9.409 16.6605 9.787 14.6155H8.907C8.75 15.8715 8.472 17.0345 8.072 18.0985C8.1 17.8855 8.031 17.5115 7.867 16.9755L7.14 14.6155H6.23L7.244 17.7715C7.397 18.2455 7.474 18.5605 7.474 18.7155C7.474 18.9385 7.376 19.1405 7.179 19.3205C7.015 19.4675 6.8 19.5425 6.532 19.5425C6.386 19.5425 6.256 19.5335 6.146 19.5165V20.0105C6.372 20.1025 6.559 20.1485 6.712 20.1485C7.285 20.1485 7.813 19.7915 8.295 19.0755ZM21.927 11.4995C22.274 11.3515 22.689 11.2975 23.224 11.3115C23.2084 11.2059 23.0012 11.0807 22.8591 10.9948C22.8195 10.9709 22.785 10.95 22.761 10.9335L22.7532 10.9279C22.5396 10.7757 22.3182 10.6178 22.091 10.4795C22.0179 10.435 21.9124 10.3972 21.8111 10.3609C21.7462 10.3376 21.683 10.3149 21.631 10.2915C21.5777 10.2699 21.5049 10.2483 21.4263 10.2249C21.2394 10.1694 21.0194 10.104 20.949 10.0055C20.7634 9.76443 20.634 9.47218 20.505 9.18076L20.473 9.10849C20.4112 8.96973 20.3436 8.82831 20.2754 8.68564C20.1867 8.50035 20.0971 8.31294 20.018 8.12649C19.9862 8.05688 19.9617 7.99087 19.9375 7.92582C19.906 7.84135 19.8752 7.75849 19.83 7.67149C19.3486 6.73905 18.6293 5.95041 17.745 5.38549C17.458 5.20549 17.138 5.03949 16.783 4.92549C16.6758 4.89387 16.5568 4.88868 16.4365 4.88343C16.3324 4.87889 16.2273 4.8743 16.128 4.85249H15.988C15.9076 4.83039 15.8358 4.76613 15.7689 4.70627C15.7359 4.67675 15.704 4.64829 15.673 4.62649C15.466 4.48649 15.258 4.39249 15.011 4.29249C14.924 4.25249 14.677 4.15849 14.589 4.23049C14.537 4.24549 14.509 4.26649 14.495 4.32049C14.442 4.40049 14.489 4.52149 14.522 4.59449C14.5887 4.7351 14.6723 4.83824 14.7581 4.94388C14.8022 4.99827 14.8468 5.05332 14.89 5.11449C14.9078 5.13929 14.9262 5.16461 14.9449 5.19036C15.0462 5.32974 15.1565 5.48147 15.224 5.62749C15.3171 5.82765 15.3833 6.03926 15.4493 6.25006C15.5065 6.43316 15.5636 6.61565 15.638 6.78949C15.7037 6.9394 15.7841 7.08244 15.878 7.21649C15.9059 7.2558 15.9423 7.29073 15.9791 7.32597C16.0386 7.38307 16.099 7.44096 16.125 7.51949C16.1901 7.62861 16.0696 7.94193 15.9972 8.13014C15.9807 8.17307 15.9667 8.20949 15.958 8.23549C15.785 8.78249 15.818 9.5455 16.018 10.0205C16.0228 10.0317 16.0276 10.0431 16.0324 10.0545C16.0351 10.061 16.0378 10.0674 16.0406 10.0739C16.113 10.2468 16.1912 10.4334 16.385 10.4805C16.3885 10.4768 16.3911 10.4731 16.3911 10.4731L16.3928 10.4712C16.3928 10.4712 16.3947 10.4704 16.3973 10.4699C16.4 10.4693 16.4044 10.4685 16.412 10.4665C16.4224 10.387 16.4311 10.3081 16.4397 10.2304C16.4709 9.94855 16.5005 9.68225 16.6 9.45649C16.6477 9.33897 16.7269 9.24405 16.8039 9.15167C16.8449 9.10256 16.8853 9.05417 16.92 9.00349C16.9626 9.02892 16.9781 9.08665 16.994 9.14589C17.0032 9.17987 17.0124 9.21434 17.027 9.24349L17.0642 9.33136C17.1411 9.5134 17.2224 9.70586 17.317 9.88649C17.5324 10.3122 17.7822 10.7195 18.064 11.1045C18.1702 11.2466 18.2872 11.3804 18.414 11.5045C18.4326 11.5207 18.4516 11.5346 18.4702 11.5483C18.5056 11.5744 18.5398 11.5995 18.568 11.6375H18.583V11.6575C18.4567 11.6108 18.3595 11.5105 18.2647 11.4128C18.2094 11.3558 18.1549 11.2997 18.096 11.2555C17.795 11.0285 17.435 10.6885 17.229 10.3605C17.1659 10.2226 17.0985 10.0895 17.03 9.95413C17.0051 9.905 16.98 9.85557 16.955 9.80549V9.79049C16.9286 9.82525 16.9246 9.85959 16.9197 9.90098C16.9171 9.9239 16.9141 9.94898 16.907 9.97749C16.8826 10.0725 16.8704 10.1711 16.8587 10.2664C16.829 10.5071 16.8019 10.7265 16.587 10.8125C16.246 10.9535 15.991 10.5855 15.884 10.4195C15.544 9.86249 15.45 8.92649 15.69 8.16949C15.709 8.11117 15.722 8.04889 15.735 7.98674C15.7591 7.87201 15.783 7.75771 15.844 7.66949C15.8299 7.58887 15.7837 7.54707 15.7386 7.50618C15.7165 7.48621 15.6947 7.46645 15.677 7.44249C15.583 7.31649 15.503 7.16949 15.43 7.02949C15.3217 6.81679 15.2368 6.57238 15.1548 6.33652C15.1308 6.26744 15.107 6.1991 15.083 6.13249C15.0599 6.07311 15.0451 6.01421 15.0303 5.95592C15.0151 5.89542 14.9999 5.83557 14.976 5.77649C14.9099 5.63429 14.7993 5.49003 14.698 5.35786C14.6767 5.33016 14.6559 5.303 14.636 5.27649C14.6103 5.23998 14.5765 5.19774 14.5389 5.15069C14.3499 4.91426 14.0639 4.55646 14.214 4.19449C14.494 3.50649 15.478 4.02649 15.858 4.26649C15.8955 4.29082 15.9349 4.32563 15.9757 4.36168C16.0372 4.41605 16.1019 4.47323 16.168 4.50149C16.2597 4.50536 16.3518 4.51076 16.444 4.51616C16.5186 4.52054 16.5933 4.52492 16.668 4.52849L16.7603 4.55013C17.0391 4.61514 17.3014 4.67634 17.524 4.80249C18.673 5.47649 19.42 6.16549 20.11 7.30249C20.2038 7.4557 20.2675 7.61746 20.3325 7.78258C20.3694 7.87612 20.4066 7.97074 20.45 8.06549C20.6182 8.45966 20.8006 8.84758 20.997 9.22849C21.0183 9.27219 21.0387 9.31716 21.0592 9.3623C21.1203 9.49691 21.1821 9.63316 21.272 9.74249C21.3027 9.7872 21.3726 9.81098 21.4394 9.83374C21.4728 9.84509 21.5054 9.85618 21.532 9.86949C21.6196 9.9147 21.7143 9.95549 21.8098 9.99663C21.9551 10.0592 22.1023 10.1226 22.229 10.2035C22.6178 10.4488 22.9869 10.724 23.333 11.0265C23.3996 11.0867 23.4564 11.1615 23.5133 11.2366C23.5624 11.3012 23.6115 11.366 23.667 11.4215V11.4815C23.56 11.5155 23.453 11.5485 23.347 11.5755C23.231 11.6046 23.1217 11.6162 23.0133 11.6277C22.9021 11.6394 22.792 11.6511 22.677 11.6815L22.6378 11.6927C22.5054 11.7309 22.3497 11.7757 22.217 11.7875L22.23 11.8015C22.2957 11.9843 22.5728 12.1443 22.7982 12.2743C22.8749 12.3186 22.9457 12.3594 23 12.3965C23.2644 12.5852 23.4987 12.8128 23.695 13.0715C23.7279 13.1044 23.761 13.1358 23.7942 13.1673C23.8277 13.199 23.8614 13.2309 23.895 13.2645C23.9165 13.2964 23.9309 13.333 23.9451 13.3689C23.9606 13.4083 23.9759 13.4471 24 13.4785V13.4985C23.9422 13.4788 23.9022 13.4373 23.863 13.3965C23.8384 13.371 23.8141 13.3458 23.786 13.3265C23.7206 13.282 23.655 13.2338 23.5896 13.1856C23.5079 13.1256 23.4265 13.0657 23.346 13.0135C23.216 12.9314 23.0755 12.8664 22.9346 12.8013C22.7992 12.7387 22.6634 12.6759 22.536 12.5975C22.389 12.5035 22.249 12.3975 22.109 12.2875C21.981 12.1935 21.843 12.0145 21.763 11.8805C21.7431 11.8492 21.7302 11.8156 21.7178 11.7832C21.7008 11.739 21.6847 11.6971 21.653 11.6665C21.6635 11.5715 21.7556 11.5476 21.8432 11.5248C21.8728 11.5171 21.9018 11.5096 21.927 11.4995Z" fill="#4479A1"/>
<path d="M22.112 18.6955H19.482V13.1655H20.367V18.0155H22.112V18.6955Z" fill="#F29111"/>
<path fill-rule="evenodd" clip-rule="evenodd" d="M18.792 18.8305L17.776 18.3305C17.866 18.2545 17.953 18.1725 18.031 18.0805C18.464 17.5745 18.679 16.8225 18.679 15.8275C18.679 13.9975 17.961 13.0815 16.524 13.0815C15.82 13.0815 15.27 13.3135 14.874 13.7785C14.444 14.2865 14.228 15.0345 14.228 16.0235C14.228 16.9955 14.418 17.7095 14.802 18.1635C15.152 18.5735 15.679 18.7785 16.385 18.7785C16.649 18.7785 16.891 18.7455 17.11 18.6805L18.435 19.4525L18.795 18.8305H18.792ZM15.163 15.8525C15.163 16.6485 15.275 17.2285 15.5 17.5885L15.498 17.5935C15.706 17.9265 16.031 18.0935 16.476 18.0935C17.322 18.0935 17.746 17.3895 17.746 15.9855C17.746 15.1985 17.634 14.6245 17.41 14.2625C17.203 13.9295 16.876 13.7625 16.433 13.7625C15.587 13.7625 15.163 14.4595 15.163 15.8525Z" fill="#F29111"/>
<path d="M13.842 17.1635C13.842 17.6335 13.67 18.0195 13.326 18.3195C12.982 18.6195 12.523 18.7695 11.942 18.7695C11.399 18.7695 10.878 18.5975 10.369 18.2545L10.606 17.7785C11.044 17.9985 11.439 18.1065 11.796 18.1065C12.128 18.1065 12.389 18.0335 12.579 17.8865C12.674 17.8149 12.7506 17.7219 12.8028 17.615C12.8549 17.5081 12.881 17.3904 12.879 17.2715C12.879 16.9415 12.649 16.6615 12.231 16.4265C11.843 16.2135 11.068 15.7695 11.068 15.7695C10.646 15.4625 10.436 15.1335 10.436 14.5925C10.436 14.1425 10.593 13.7825 10.906 13.5075C11.221 13.2295 11.626 13.0925 12.126 13.0925C12.638 13.0925 13.106 13.2285 13.526 13.5025L13.313 13.9785C12.9774 13.8311 12.6155 13.7528 12.249 13.7485C11.966 13.7485 11.747 13.8165 11.595 13.9545C11.5179 14.0184 11.4557 14.0984 11.4128 14.189C11.37 14.2795 11.3475 14.3783 11.347 14.4785C11.347 14.8065 11.581 15.0885 12.013 15.3285C12.406 15.5435 13.2 15.9985 13.2 15.9985C13.633 16.3035 13.848 16.6285 13.848 17.1665L13.842 17.1635Z" fill="#F29111"/>
</svg>
