<svg width="24" height="24" viewBox="0 0 24 24" fill="none" xmlns="http://www.w3.org/2000/svg">
<g clip-path="url(#clip0_944_2452)">
<path d="M11.9974 24.0002C11.6764 24.0002 11.3564 23.9163 11.0754 23.7533L8.13942 22.0163C7.70142 21.7712 7.91542 21.6842 8.05942 21.6332C8.64442 21.4303 8.76242 21.3832 9.38742 21.0292C9.45242 20.9922 9.53842 21.0062 9.60542 21.0462L11.8614 22.3853C11.9434 22.4303 12.0584 22.4303 12.1334 22.3853L20.9284 17.3092C21.0104 17.2622 21.0624 17.1682 21.0624 17.0712V6.92125C21.0624 6.82225 21.0094 6.72925 20.9254 6.67925L12.1344 1.60725C12.0534 1.56025 11.9454 1.56025 11.8634 1.60725L3.07442 6.68025C2.98942 6.72925 2.93542 6.82525 2.93542 6.92125V17.0712C2.93542 17.1682 2.98942 17.2603 3.07442 17.3062L5.48342 18.6982C6.79042 19.3522 7.59142 18.5823 7.59142 17.8083V7.78725C7.59142 7.64525 7.70542 7.53425 7.84742 7.53425H8.96242C9.10142 7.53425 9.21742 7.64625 9.21742 7.78725V17.8083C9.21742 19.5533 8.26742 20.5532 6.61342 20.5532C6.10542 20.5532 5.70442 20.5533 4.58742 20.0023L2.27942 18.6752C1.70942 18.3462 1.35742 17.7302 1.35742 17.0712V6.92125C1.35742 6.26225 1.71042 5.64625 2.27942 5.31825L11.0744 0.23625C11.6314 -0.07875 12.3704 -0.07875 12.9224 0.23625L21.7164 5.31825C22.2864 5.64725 22.6404 6.26225 22.6404 6.92125V17.0712C22.6404 17.7302 22.2864 18.3442 21.7164 18.6752L12.9224 23.7533C12.6424 23.9163 12.3234 24.0002 11.9974 24.0002ZM19.0984 13.9932C19.0984 12.0933 17.8144 11.5872 15.1114 11.2302C12.3804 10.8692 12.1024 10.6823 12.1024 10.0433C12.1024 9.51525 12.3374 8.81025 14.3604 8.81025C16.1674 8.81025 16.8334 9.19925 17.1074 10.4172C17.1314 10.5322 17.2364 10.6163 17.3544 10.6163H18.4954C18.5664 10.6163 18.6334 10.5852 18.6814 10.5352C18.7294 10.4812 18.7554 10.4122 18.7484 10.3392C18.5714 8.24125 17.1774 7.26325 14.3604 7.26325C11.8524 7.26325 10.3564 8.32125 10.3564 10.0962C10.3564 12.0212 11.8444 12.5533 14.2514 12.7913C17.1314 13.0732 17.3544 13.4943 17.3544 14.0603C17.3544 15.0433 16.5654 15.4622 14.7124 15.4622C12.3854 15.4622 11.8734 14.8783 11.7014 13.7203C11.6814 13.5963 11.5754 13.5052 11.4484 13.5052H10.3114C10.1704 13.5052 10.0574 13.6173 10.0574 13.7583C10.0574 15.2403 10.8634 17.0063 14.7124 17.0063C17.5004 17.0072 19.0984 15.9102 19.0984 13.9932Z" fill="#539E43"/>
</g>
<defs>
<clipPath id="clip0_944_2452">
<rect width="24" height="24" fill="white"/>
</clipPath>
</defs>
</svg>
